<mxfile host="Electron" modified="2024-08-22T22:45:43.500Z" agent="Mozilla/5.0 (Windows NT 10.0; Win64; x64) AppleWebKit/537.36 (KHTML, like Gecko) draw.io/24.6.4 Chrome/124.0.6367.207 Electron/30.0.6 Safari/537.36" etag="jNiLFHFfB-YYzapynMIm" version="24.6.4" type="device">
  <diagram name="PÃ¡gina-1" id="rkfi2ipDRNScSGYTQxA-">
    <mxGraphModel dx="2686" dy="836" grid="0" gridSize="10" guides="1" tooltips="1" connect="1" arrows="1" fold="1" page="0" pageScale="1" pageWidth="827" pageHeight="1169" math="0" shadow="0">
      <root>
        <mxCell id="0" />
        <mxCell id="1" parent="0" />
        <mxCell id="CFGaGI9f9zlW45BvHWe5-1" style="edgeStyle=orthogonalEdgeStyle;rounded=0;orthogonalLoop=1;jettySize=auto;html=1;flowAnimation=1;dashed=1;" edge="1" parent="1" source="CFGaGI9f9zlW45BvHWe5-45" target="CFGaGI9f9zlW45BvHWe5-26">
          <mxGeometry relative="1" as="geometry">
            <mxPoint x="-96" y="175.5" as="targetPoint" />
            <mxPoint x="-234.57000000000016" y="165.60000000000002" as="sourcePoint" />
          </mxGeometry>
        </mxCell>
        <mxCell id="CFGaGI9f9zlW45BvHWe5-2" value="" style="shape=image;verticalLabelPosition=bottom;labelBackgroundColor=default;verticalAlign=top;aspect=fixed;imageAspect=0;image=data:image/png,iVBORw0KGgoAAAANSUhEUgAAAXYAAACxCAMAAADnGmbvAAAAAXNSR0IArs4c6QAAAARnQU1BAACxjwv8YQUAAADhUExURQAAAAAAAAAAAAAAAAAAAAAAAAAAAAAAAAAAAAAAAAAAAAAAAAAAAAAAAAAAAAAAAAAAAAAAAAAAAAAAAAAAAAAAAAAAAAAAAAAAAAAAAAAAAAAAAAAAAAAAAAAAAAAAAAAAAAAAAAAAAAAAAAAAAAAAAAAAAAAAAAAAAAAAAAAAAAAAAAAAAAAAAAAAAAAAAAAAAAAAAAAAAAAAAAAAAAAAAAAAAAAAAAAAAAAAAAGojRGtlCGzmzG4okG+qlHDsWHJuHHOv4DTxo/ZzZ/e1K/k27/p4s/v6t/08e/6+P///7kmNZIAAAA5dFJOUwAECAoOFRkaHSAhJCgrLC82PEJFR0lQUlhdYmRobXd5gISGjZKZnZ6ipq+ys7i/wMXMzdLX4e70+cCwhGYAAAAJcEhZcwAAFxEAABcRAcom8z8AAAyKSURBVHhe7Z1pg9RYFYa7B1FEZ5QRxwEVwdZRUYFhaShS+178/x/kWd67Za+mmtR47vOBTlK5qZMnN+eepFLFxYB8HBLEYBAIGAbEYBAIGAbEYBAIGAbEYBAIGAbEYBAIGAbEYBAIGAbEYBAIGAbEYBAIGAbEYBAIGAbEYBAIGAbEYBAIGAbEYBAIGAbEYBAIGAbEYBAIGAbEYBAIGAbEYBAIGAbEYBAIGAbEYBAI6E9RTIhxgdnPAjEYBAJ6UcyW2/3hE9hvllO8cFMQg0EgoJvxcueNBzZzvHwjEINBIKCDYho5PxwS/6sxVjoexGAQCGiFpKvhA+WViWb1YjpfbnXpp81NxSMGg0BAG5C+W8J4xGwtL31a30w8YjAIBDRTrNjrYTvBfJnFXsTfKMcjBoNAQCNTsdoonZnpKjcoKRGDQSCgiQWPnrs26cyCvR+61qqCGAwCAQ1wgjksuvtxsWHxR5fxiMEgEFBLwQPmYYY5YbJYbbe7/W67Xs6So7Fk78cmeMRgEAioha3vQo1STNfpBdM+LtmnvORI74jBIBBQB2eYMFAWSy1ZUrZB9ISPyXF5BjEYBAJq4HFy56wXc3T03WY5n83mdK3kFviRdEJzx42riMEgEFCFO6+3PpErpsN2Hufz8UKvo1aYF+97TPcCMRgEAioUpPTgUrd09cOyeik6latU3+E5v28w3QfEYBAIqECJ3dcwUqVs66//J5zxDy6l81FIKp92EINBIKDMjPy55CFlZHONIjcPnHc+RzDZA8RgEAgosw2JXYbW+q6uSOkI72OaXOpkDxCDQSCgBHd2iEwKmnrYuxsH6NTwQ0IniMEgEFCCcgWGxqSgaYK973SyoFy/1sluEINBICCFOzuqE8o2PWpxboDcQuNv7+yOGAwCASkb39k5xUhpMlsp/hCMsUDHWr4VprmloKmFTHWDGAwCAQl82aOZvaAUowdAikjCVzS8EqMvR7mFKpu+10yIwSAQkECKkak5Y2j/7tD+cU6T2t25mOk5qCIGg0BAAuVzJGrqwyFl79aEK9A/FjwXhl5eFd2dpnpmGcRgEAiI4eysdmmkdNUgaa8pUGip007dHUMpZRm3sAPEYBAIiGHZOhWG1m7tfLA0A4X2XSAGg0BATHBJ6cLdYenUzhdKugYfgO6ak0EMBoGAGOrjejuGR003OHZrD1mGMn6/5I4YDAIBMb6PU9GOioYOwXzuR9NAvJQ7uV7OUnLvd18GMRgEAmJ8Hyd9NT28Earx9RjE50AriMEgEBAR6m6fbfrhcwuNqf4saQUxGAQCIjij6xTV78232avQUfLa+12nIgaDQEAEaQ9Doytk+kCljKb0ad8KEjEYBAIiPke75qSsvRMIiEi0H5lkfG/PSaYdCIjgIVWnKLf3vYXLxLk9D6ntQEDEDepvxdf7dOG0lYkuEINBICCG6m9/s9fX3+NJ9bscsjTc46XDpe3oMqtfvY8YDAIBMXH97YfG7psD4VZC73ofMRgEAmJ8Icjppv89mXArIbqD1g5iMAgExASX0QcW3dppANY+Hh+tdhCDQSAgJuSW6GPRTu2cY8KHIzLRCWIwCATEcG/VJMG1JO6ck+DdkvA30sc8Rz3caecVdIqSlD8F2kEMBoGABP+BBWcZGCSrQtNH2PyMAapNatTzKgsxGAQCEsIHFvw8gC8mhSbt9PpBK0zKMT1Te9aewFkGeqnnanafbRRfohRYoF2cn9lDZ6fysWeOydpTKMtgKOWnG3vU4AUl+b12dh4P+pWPWXuJSB313R4W6Ti5tbj6qbmerQUxGAQCSpBsdHd+yq7zOQB+UhLnxJiyTe/7Z4jBIBBQgsdLZHfu+f5LMvXwcOsexg7ZpgeIwSAQUIa6u3sejNN7W0Uo39V21rn06Vk9EojBIBBQhosZd/NWvDeOq/LdSfclG04x7msgPUAMBoGACtxtXY4W7/VfGitWLNr1df3Fh/7eEYNBIKAKJWnvT78NvKuIV+mfVi6ZUxUj9PWOGAwCAVW4hAlfn8FF6jr6GvZkoT/bFk4DLmjWcmr09I4YDAIBNXA1E7xPeOAUNpv1ar11v5QX/doMW6d00zUERyAGg0BAHewv+rpYEB/YL0PvZ+t7Hlrlbk0v74jBIBBQC9/USi5R58kPyuxW0cer8ktuOEi9vSMGg0BAPZIv0ocHxrP5crlaLRbpJ9pSw0hfZ+SnZXp4RwwGgYAGxHvrN9+VKXuO1hPv3fcIEINBIKAJ+QGNrnuQEynXN3H37+cdMRgEApqRgbTlBzY+jrV4LxWNcr3a5R0xGAQCWphLh2/4BeXoZ9uioocZ8yVWOi5UQAwGgYBWcK20Lf9eezFd6SHZL0rFJsO/v9ThHTEYBALakZuMwma9nE+J2XyxdldMe75iupF3xGAQCOgEv6Bcwf9sW5P3tuEYMRgEAnow9b/X7jlsFyHjN3mvearJgRgMAgE9mS1W293+cDjsd5tV6Yqp0XvzQ9eIwSAQcBKO9o4YDAIBp4HvhpW9c2Zq8o4YDAIBJ0LuQqapRz4vafCOGAwCAafiOO+IwSAQcDL40qq3d8RgEAg4HfFDMw72XndXBzEYBAJOCH/eUeO97psGiMEgEHBKxDumQcP3ahCDQSDgpMhjYpgGh9qnCRCDQSDgtFS977P2BAg4Mew9rl34Q+2cZCIg4NSUvG/qK0jEYBAIODmJd76IygVkDAScnsg7/w9xdZ09a78F5NqUEvqUnyuo/yl9xGAQCLgN2Psn/b+zG74OghgMAgG3gj7tTjT8LzZZ++2gH8BuG/8LSsRgEAi4LcbTaZNzAjEYBAKGATEYBAKGATEYBAKGATEYBAKGATEYBAKGATEYBAKGATEYBAKGATEYBAKGATEYBAKGATEYBAKGATEYBAKGATEYBAKGATEYBAKGATEYBAKGATEYBAKGATEYBAKGATEYBAKGATEYBAKGATFkMplMJpPJZDKZTCaTyWQymUymlcej0VNMnp6v3o0cL7+7g4UR96/f38XkMXz17sNv+e/lL6OZnxSX/x6NXtcIOQ2R9tq3+TztD6+/DzM/Le5fv/1xxNHfCkHJz/9ad1bdULtCPebWAr9trkbPH4+eY+bkxD3xqqa7W9VOWeD7+9e3dpbG2usUW9X+YPT+LoWP058tfPtiNHr73cWF/H2ky+/97UfKzS9pqYwFigi9/BO98vaJdGNq/QuefcPrKbF2fiv+K00+/OCa8LJ77/RMiLfG70rrPfmZyE23LZulWoB46t+jI5RzQo07IRztX2RnRo90p/R4YHo0+kFaAN7Z+9dhmmY+0J4yPonXJJl7dDgZNOF3pq0855eSrbm5Ny9Ue7ztOu1doZwTml8402CW1N65uMdq9S+scN8kX+qDeSA7RA25P33zwq03ekatdE4I2n9NXZffhA7bm99IT9Ym9C+2X9oaz319cUkjsWqPt62bpU3xFnWmM5Rz4rH2QDfaUbTSO0iqjLJ6VLASv6pHRyap59Mrule0z9TOtdZWAr0Q4BZ+Y/Se0uT9XWyrvDU3R51atUfbrtHeGcoZQTGKSBdd+KvL3etKmKMpPiyaohiR6VpHrWjS8ZL6uFdFPNAm7/8AQ6Wt+TndWrrtqvbuUM4I6tUO9G7tMtWof/X7P/6DTlydo32ULhteltHBtY72Vf3wyU4JQxfg/QhpwhNav6Zb83MqN912VXvauC6UM+JKdl+QMBu038co6LRf6drRTknDZu1syG/RI01Go39VTi3ekJ87VntTKOeDyyUyxeeoizbVzufEq78/+d03WP2xG1rDTnX0dlkmL5Y80Ps+cmk53Zqf+//r7W4YInRQrdVOeyflHTvifaCjgF2hV9KEWtlXr51bpcOBIE34DWg63Zqf0611aU8b14VyNoRQncta7T50SkmyTmhVLh8q+xq0ozU30Swf6cHxTLfm5lwlE2+7qr3U+Jy1P4jqcIqPelytdtq712SKhkUWoCsCmuFimS5ouV27dlrKJxT9+UBNuB4PNtVZujWeo7r9z/KupW177dwBdCZtfM7ak3tTkrBrtfOZIDzj3fRXrJI0qJ8Ksnq7dt4MW3JNMCNNqAUfy2Rrbu4/jbmdTyBqh5muUM4FCon3HFDUT320qfaLb/9Le/PPr0n56zup9vKNkDbt1DllRu/J0OYI1wTjRfmezHV8T6aq/ZKufF/fce/REUrmKLK5L8oVxhApCDNfCspmzyhhPLyG/swXgYYCJRr3M7fP5cNXJP0VPmnJZDKZTCaTyWQymUwmk8lkMplM5qRcXPwPY2xTgTN3gA4AAAAASUVORK5CYII=;" vertex="1" parent="1">
          <mxGeometry x="455" y="456.5" width="219.75" height="104" as="geometry" />
        </mxCell>
        <mxCell id="CFGaGI9f9zlW45BvHWe5-3" value="" style="shape=image;verticalLabelPosition=bottom;labelBackgroundColor=default;verticalAlign=top;aspect=fixed;imageAspect=0;image=data:image/png,iVBORw0KGgoAAAANSUhEUgAAAXYAAACxCAMAAADnGmbvAAAAAXNSR0IArs4c6QAAAARnQU1BAACxjwv8YQUAAADMUExURQAAAAAAAAAAAAAAAAAAAAAAAAAAAAAAAAAAAAAAAAAAAAAAAAAAAAAAAAAAAAAAAAAAAAAAAAAAAAAAAAAAAAAAAAAAAAAAAAAAAAAAAAAAAAAAAAAAAAAAAAAAAAAAAAAAAAAAAAAAAAAAAAAAAAAAAAAAAAAAAAAAAAAAAAAAAAAAAAAAAAAAAAAAAAAAAAAAAAAAAAAAAMkl0cwz1NBA19NO2tdc3dpp39134uGF5eSS6Oef6+ut7u678fHI8/XW9vjk+fzx/P///wIkiHkAAAAydFJOUwAECAoVGRodISQoKywvNjxCRUlQWF1iZGh3eYCEho2SmZ2eoq+yuL/AxczN0tfh7vT5k0JOBgAAAAlwSFlzAAAXEQAAFxEByibzPwAADFRJREFUeF7tnX3bm7YVh5O0XdK1W7qXZu3aPV2XbFnTJWn8gLGNwTb+/t9p50g/QHAkkJ/LDe6lc/9jjHk53BZHQsj40YLcLwliSBAIWAbEkCAQsAyIIUEgYBkQQ4JAwDIghgSBgGVADAkCAcuAGBIEApYBMSQIBCwDYkgQCFgGxJAgELAMiCFBIGAZEEOCQMAyIIYEgYBlQAwJAgHLgBgSBAKWATEkCAQsA2JIEAhYBsSQIBAQT5bla0OeYc7DQQwJAgHzZOvNbn84NmeH5lRXZZFjictBDAkCAdNkm3Loe0RdFljyMhBDgkDABPlYedOciPHXUG+x/AUghgSBgBBZ0TlvDlW5LdZZn9Lz9WZbHk74/Hy+ONkjhgSBgADF0Qo97rdrzPKw2R14oRpv40EMCQIBXvLaOD+UE8pbNtV5g8l4EEOCQICPNaePpo5wbrm8QYkYEgQCPKw5qR+ipT8ExJAgECDJKK03D2idXAJiSBAIkJRkPS5bZ2XlZz+XdhBDgkCAhBonJSZnMM0YLxWWCIEYEgQCJFSfxl16buDYw1yTEjEkCARIyFpcjqHCfiwlVcQGEEOCQICErB0wOQkXdt9pQXXDEZNBEEOCQICEbJ73mJ6CCrs3l1CSmq0bEEOCQICEtUeU91Bhp/nNbI8wYkgQCJAY7efzDm9DhAp7HdNHgxgSBAIkpNy2DPdThTZU2HO6xJ2vkRFDgkCAhHzmO+N9qi8sVNhjKlTV7oG1399D/Lmpy8JzzRkq7FEVqmr3QEJNdtmhy5051FW53RZFsUbxDxX2qApVtXsgyxCX27sYQ0zRDxb2qApVtXsgo0553ZR1f/OOMZ+FCntcharaPVi1mZsq8s22rA6HI9/B5iwTLOxxFapq92C178+1V6whVNi5Qq3tGCbC/eJGIIYEgQCJ0c7Z4nza+9uPwcLOHziEL3URQ4JAgISEr+3tVKLx6Q0WdsoxLg1mSxBDgkCABI2RDXfgDmrXlmBhv8+ODTDrhjvUEEOCQICErdoOGWo/+gpssLD3ZDziY6IbEzEkCAR44MZ6q8xTqsOFvWPOumr3wEMHzqfg2IH5wm6tT93GRgwJAgE+bH/M0d/1a1oryOBN4/t2Mq4VpgcPIIYEgQAPbS8YleqtlMcl2eGE2Q5svZq0rtol3GQ/rm07hqaq3TCRb/EBkPkmwrpql1Dj+8TWdn1fDP92Y1tAf4aLUMLXA7On5Q8z1lW7hGwjYRel0/dLjBWvad64Xc9XTMc566pdQt76PoFsu+f2pGWsnRSPcwzXC/PWVbuExI2aJ+iAPI1b63RejO4kRVpX7RIy10SY8+WYWOuqXULqzseJTtsO0bkebV21S1h71AB3qm8HOcZYj/m+VLsHo50Ezokf55gdNSdPcdZVu4Rscrklh/tJibSQm2O2F1hX7RIuxKZbhTjsw32N1LB0cgxbb/w3ozwghgSBAAlrpxTS9g6cj/6nC+T0Ua+5uMi6apeQTmt5MEqmOR3qqtoTlb23Pcgxxnr4xBAghgSBAAk5bgt3tq3Ip8D0CNfOjQzunIn8mZkFMSQIBEjIq5tTsg1doVrdLZzSM3pti/fF1lW7hHyS9nzUflxvNlv+ZdK+LHecwynHtF3tl1tX7RKrvT6fyqkLzj7HPMC6apeQ9jUGGtW7kPmMXFvVPKLGWC925jSIAjEkCARITH973rYfA8WYvhY7liNn6yYhUQUw98ObDsSQIBAgIeEma9u7S27t6tDmmN463+yLbkIihgSBAAlfB9kWeVEeA+N32xyT8VdjrG9oztygpR7EkCAQ4IHLbdsDGcjtnGPoIzOihpfM+A6qXqVGAAE+TF6ffIoP5Rgq2sY6NeKzkgv9Ja0ZxJAgEODBDOoiDijxEs4tG7scXzphDEdwcQliSBAI8MA2MWSg9v9C0uSYfqAjXbGaMb7xnTKIIUEgQMJN9v19gSLP6rdjn5TJa3d46b7MzDOX7LsIEEOCQICEdJomydpk7JZTXVXcOWBKP32wdawbuAGkDchZIEBi8ralKEedYDaXF/TKWci1br4u57bHNIghQSBAQj7dhL7ZDTog2Sx+KzMa1Evah9/DBIghQSBAQkLlo7746bLlvqoqPhFs8hlZ5yso1T4LBEhY6WSS5iEDYlCvW8POgxgSBAIkRupUp5bJMT7rqn0eCJCwP6oyA31gBOeY4VDqjMcNEKp9FgiQkD4jMfQrbNNV5lrP7Hhsze0xQICEDGK0xtH7K2y6MHKsZ4W9y93s6BpKtc8CARJymN9vcKnUVJ5bRu1zfbKi/T+DZp/zpatqnwUCJGSR8zp+hc0cuX+gH6LEf0nD/5KCb4akl/yZao8BAiTk0RrO5FN8zI8iMQ2aam0Lv2qPAQIkpLJvxWxk94ADnQZ9ClLtMUCAhHT22pmcBygdu5RCNKdjvd+hlLeo9hggQEJaSXtBleSY3PzNWO78JY2Lao8BAiRWO+WWiccn+VDtMUCAhKrMdXufbn/B/VFq+aj2WSBAQpecZTtKJjg8ScL3V6PvpiKGBIEACf+ChtsntuEuM3wAWjrmwZsWxJAgECAxQ45sId9UUQ/QJ8yvbqJvLql2D3zPbvpx1oKCv6rZBzz0IIYEgQAfxnu8+Mz+Ad8F1lW7l7XxODHO2qGwAwyamGU7EEOCQECAtiFz2PseIw6y9a79bdOF/wWHGBIEAoL0zxE/1eXO6YAkbBdk/4eq1WXSVfsU69FTfM6n0+l4PJ2GfZDNwfNAsTkQQ4JAwDTZdj9SP6A5lKP+sEgQQ4JAQAT8B8zOPzAzzelQlcXDlDOIIUEgIJ48XxeGdf5g3S2IIUEgYBkQQ4JAwDIghgSBgGVADAkCAcuAGBIEApYBMSQIBCwDYkgQCFgGxJAgELAMiCFBIGAZEEOCQMAyIIYEgYBlQAwJAgHLgBgSBAKWATEkCAQsA2JIEAhYBsSQIBCwDIghQSBgGRBDgkDAMiAGRVEURVEURVEURVEURVEUZYYXq9V3mLw+T96tLB/++xfMuiJy686cP9g5N8rjf69WP3+CN1en00Bcfy9y6+6cX68wXYFn79++Wf0Vb67Ok3cf/mgmPvvm/fW9y62Tdnssn/1j9esd1RW4W716sXqFN1enE8Pf79XLn9x6p90cGKZuEI7z2fsu+mvjiKFK5JdPMXkl5NYd7c+vvrsrwsFRekc5fPb+l0+/er1avaUayrx+bec//eENJUtTb3FdYDGH/Pgb+uTttyZ90Nq/47f/62tPV4xR8rxNNXf0ZryCs5tgKO4OxdZ/K9qt8S5COta/W6dfUwOHMd8HplerH8fa6dzupunNB9ZGdNnEFUOmv6PV7Ywn72iXoxXc3YRCGexQbN3VfstJxuaXLlg+qB8/efSU1dpX/j5oLr159PS1PVjDc6OBVuSS+uXrdrnV97SWfWcYiSERL6y+5zw9XGG4G38owx3KrXdHQlWq89mt8cKe83c49elYIcUWFfutYCH+tC1KrIhe2nRNR0vrtWs7dcVAjKm6n73HHmlTwxWGu2k/G4fi7lBunea3fGhjvT3awtGK6l/t/K7wGPp3NMUu+krBKGvXdtaSYmyWMTnGtwJh33lDGe1wUrs5dW4TKkotKFK2MEkfn//5b/+i096+o6M3BbP/2NQO7dr97KEYm21NljE5xrNCvxtvKKMdyq13Czz+/WucPDfIHZwT5iAD2p9RS8Jij+muP9Vhwaw4ox1F1WQZk2PGKwx2M6PdfCy3Pth1N3ljtCewmbJKPMdqzomf/vntn77E4i/a2qo/spjSjmnOMjbHjFYY7mZGuyjtdtrZNU6uG8S5gLGVqvdYqRy9cuo61oNDG6XaGe1tlUlZxuaY4Qqj3YRCcXcot/5b0N4fROtyuohRSjLL9GuNWzJT2rv1nrx7ZXPMcAWxG08oox3KrQ923cd5Uzx3mrYUJJWNUBH7+QvTnmYfdkFAb7gZTVeRvN6U9s+drrC7D2/a3TgrDHfjD2W0Q7n1ftdUpdoN3Bxta91gErb/WNv2zvd8dnSXkqbxQ4XMYBb3arefMy/bndH27Dc3XGGwm0Aowx3KrbtzbrThTiE6Z6E5SwPH+tV/6CBefmHy51D7uE8mqP3ty/62Q/f5aAV3N6FQRn0y4613c1Y/2UWUjifvnLNM+VigW0b5qDx1mn3KR4IvjLWwf3SoSr7dPipFURRFURRFURRFURRFURQlFR49+j93J4zeFrobxgAAAABJRU5ErkJggg==;" vertex="1" parent="1">
          <mxGeometry x="252" y="456.5" width="217.64" height="103" as="geometry" />
        </mxCell>
        <mxCell id="CFGaGI9f9zlW45BvHWe5-4" value="" style="endArrow=classic;html=1;rounded=0;flowAnimation=1;dashed=1;entryX=0.319;entryY=-0.015;entryDx=0;entryDy=0;entryPerimeter=0;exitX=1;exitY=0.5;exitDx=0;exitDy=0;" edge="1" parent="1" source="CFGaGI9f9zlW45BvHWe5-26" target="CFGaGI9f9zlW45BvHWe5-3">
          <mxGeometry width="50" height="50" relative="1" as="geometry">
            <mxPoint x="49.94999999999982" y="218.55264981472646" as="sourcePoint" />
            <mxPoint x="167" y="135" as="targetPoint" />
          </mxGeometry>
        </mxCell>
        <mxCell id="CFGaGI9f9zlW45BvHWe5-5" value="" style="group" vertex="1" connectable="0" parent="1">
          <mxGeometry x="-103.99999999999996" y="343" width="219.93000000000006" height="122" as="geometry" />
        </mxCell>
        <mxCell id="CFGaGI9f9zlW45BvHWe5-6" value="" style="shape=image;verticalLabelPosition=bottom;labelBackgroundColor=default;verticalAlign=top;aspect=fixed;imageAspect=0;image=data:image/png,iVBORw0KGgoAAAANSUhEUgAAAH0AAAB9CAMAAAC4XpwXAAAAAXNSR0IArs4c6QAAAARnQU1BAACxjwv8YQUAAAA2UExURe1xAPCMMPKVQO56EPWvcP////OeUPrbv/727/3t3/SmYPjKn++DIPzkz/nSr/a4f/fBjwAAAMOu1swAAAASdFJOU///////////////////////AOK/vxIAAAAJcEhZcwAAFxEAABcRAcom8z8AAANmSURBVGhD7ZrbcoMwDEQhl4Y01///2kpEBhlWdpxY6XTq8+RhUpYFbJ+m7RqNRqPRaDT+Gf3GZiufcWO3T/Eln/LiIDmYQT7lBaUfLSj+Wz7mBKWbCSe6Mhk6kUo/u5dPpXP5iwx9SKZzedfXPpneXZ3Lp9N7Kt/L2IN0enfZ768y9CCT/kXlzzJ2IJPe0ZJzkqEDufRv1/K5dN/y2XTX8tl01/L5dCo/eJXPp2+p/E3GtaH0600BlvWbn2VQesz6Tmzp6E7GlaF9JAbUvLuVP99PGorH5TMvRx0oHtTER+uDa36yPDBJfLQ+WKbcFSuAZcpbsQJYprwVawLLFK1KBxm6sqGa610FH3UAb6l0SxwVawabpLNfzuDyroqlwDLl65f9Zar2C+VpToVdHMuUp2LxWzVtZFTzLsMZZ8XKld+5bbRcfT45rrkdvBSLV1KKD7s4Nkkvv+SFdKMUBpukl2XQDnqITo5N0scveQMle1iU/5RiUSzLgz65uhIFPvoeZ3qZx1Q6efC3z5Wnx3kcv49elP+IX3J1ecHVyfE3lfX9kqbxo3p8clyztl/yEjYtbOrkuGZtv+QVbPorhI7ENet+hRdVjyJxzbp+GVWPI3HNmpax2s4oMpg7NsmaisWbdnQuXR7XrFce7OTqfuOa9coDi9H327k8+hWFTp4tX8UvuedqUmXL1/JLsqn0nMI16ygWt9zIWEF7XlhxDL+kn3vfL3H1aPXDNWsollE9Wv2wRtewDKN6fLNxedp+3yw/arSMFYvVz0uxRo1esXrP8DN+V7FEo5fQyxDPMbv8Vb7dfWXu09UjR1qvfvgZ09GJ8nV30ugYsPrh8mxBAfDuZpg0OgbNA/yMe/lzBp45aZRGa+ASkNZomiPF6TSNn61uviIPXkhfuGTAWAK4/NovhRfSo9V0Bi8Bllw/KE83qhtLQCx7S8rTjer288VyPVKcbsiJsQQwPBcMmSpOpx9AYmbMgxHlOwtK043qeCsXbI0uTTecNFU9Ub40HWm0OQ8CZvnCdLCRMMY8mLDKF6Y/JVRrrN8hytLhRpKvbl5eWfqL1R/XJ0NNUTpXH+S/BzXGfVWwZeCffD5dG1FM1o9ISDBl3SGDuYcGeE5CMo9MY/0Hbea+j8hHF2Qvu9FoNBqNRuOP03U/+PUpRXjTm9EAAAAASUVORK5CYII=;" vertex="1" parent="CFGaGI9f9zlW45BvHWe5-5">
          <mxGeometry x="63.45999999999998" width="93" height="93" as="geometry" />
        </mxCell>
        <mxCell id="CFGaGI9f9zlW45BvHWe5-7" value="" style="shape=image;verticalLabelPosition=bottom;labelBackgroundColor=default;verticalAlign=top;aspect=fixed;imageAspect=0;image=data:image/png,iVBORw0KGgoAAAANSUhEUgAAAXgAAAA1CAMAAAB88gCSAAAAAXNSR0IArs4c6QAAAARnQU1BAACxjwv8YQUAAACoUExURQAAAAAAAAAAAAAAAAAAAAAAAAAAAAAAAAAAAAAAAAAAAAAAAAAAAAAAAAAAAAAAAAAAAAAAAAAAAAAAAAAAAAAAAAAAAAAAAAAAAAAAAAAAAAAAAAAAAAAAAAAAAAAAAAAAAAAAAAAAAAAAAAAAAAAAAAAAAAAAAAAAAAAAAAAAAAAAAAAAAAAAAAAAAAAAAAAAAAAAAAAAAAAAAAAAAAAAAAAAAAAAACzfSIYAAAA3dFJOUwAECAoOExUZGh0eICEkKywvNjxCRUdJUFhdYmRobXeAhIaNkpmdnqKvsrO4v8DFzM3S1+Hu9PkiSXNqAAAACXBIWXMAABcRAAAXEQHKJvM/AAADOElEQVR4Xu2abVcTMRCFKSi1Cr7wolIQsQgFBaRQmv//z7wzk12S2SzWc6jn5HifD2XTncyQu5NJNrBGCCGEEEIIIYQQQgghhDwT6/fBWFx/il85dn+FcPv6fvEhtv/I4OgG/u6ON7S1NX/Y1IsC6+rVPv83WuHBrUmVs6N3Xi4vzsFcneFRfpYmhS/Tjnp4NC8qPwmzt/FyKcYhTN/j5+5VCKI8hS+TjHprHr7Gy4RJuIhXS4EJcmBXg8sgklP4Mumox6qUY1J6Gr1A7dYcDxIpT+HLpKNGvdeyPDjCero4k7qDwgEeNs0MIr6Se7O4DieGkZ302R3u4Y4Iv5/0GZ2iEWwlz4VPvflIo1PcOn5x2fkFqyVLN8vuEaqzIDe88AtRDWhap4aRcWedgITnZqZ9zCE4QyMTPvPmImHyCLMrFb4Qtz6c8KjnqBYzrI7IMU1eexiN8CGcbMjA5ZYzVLorQt4HLUlUtMRfKnzuLe+FqYgVfvANYkP4Utz6yIQfi2xt0prkTviYgNJyhkpyGSn3wbeQMBU+9+Z7mcSYLuhVilsfHeGRT1pHpV7LAHPhzVgXA2+olIRP+rRYKxHeefORzGt/3PrIhJdCgcG1SJ7lwlvmqQDeUCmVmqSPsv3x8ByVJBfeefORrKtqXoxbH6nwmll+XH8nfFsGhOEbfDjht+LCSOET4RsFbJSRp4TPDJWmRCj6FHLh5QDi5vvx3jtf4523p4Xvxq2PVHgVStM+oVd4b6ikX8IK177Phc6IzuLqvJUj9cetj0T4uJPAFsIOZ6xs9ArvDY3kyGCiW8Zy7k58qXHeOpG01exqCnGroxV+uzkkw1gXeF+UXbOI1C+8M4ygdY1d9sAfkmkfZOstRNM3IPXwKHzurRNJ9vFfml6luLWBUbRMLX+Q+YbO6H7hnWFD+2660NTP++ghMzjRepEKn3srR/phO8ly3Mpohb/Tw1zFjkKmNp+fED43bBnKt50/hMQ+uz+th5aJTPjMm480Op13zmp8XLIymsdA/hHNa1l29klWD5aNExSu/XnnvZisFGyGjIq3j3Uy2Jd/XLiJbwiEEEIIIYQQQgghhBBCyLOztvYbi83v3TjtyhIAAAAASUVORK5CYII=;" vertex="1" parent="CFGaGI9f9zlW45BvHWe5-5">
          <mxGeometry y="91" width="219.93" height="31" as="geometry" />
        </mxCell>
        <mxCell id="CFGaGI9f9zlW45BvHWe5-8" value="" style="shape=image;verticalLabelPosition=bottom;labelBackgroundColor=default;verticalAlign=top;aspect=fixed;imageAspect=0;image=https://cdn3.iconfinder.com/data/icons/logos-and-brands-adobe/512/267_Python-512.png;" vertex="1" parent="CFGaGI9f9zlW45BvHWe5-5">
          <mxGeometry x="119.99999999999996" y="-22" width="54" height="54" as="geometry" />
        </mxCell>
        <mxCell id="CFGaGI9f9zlW45BvHWe5-9" value="" style="group" vertex="1" connectable="0" parent="1">
          <mxGeometry x="-450" y="449" width="212.83" height="119" as="geometry" />
        </mxCell>
        <mxCell id="CFGaGI9f9zlW45BvHWe5-10" value="" style="shape=image;verticalLabelPosition=bottom;labelBackgroundColor=default;verticalAlign=top;aspect=fixed;imageAspect=0;image=data:image/png,iVBORw0KGgoAAAANSUhEUgAAAH0AAAB9CAMAAAC4XpwXAAAAAXNSR0IArs4c6QAAAARnQU1BAACxjwv8YQUAAAA2UExURd00TN9BV+FNYuqAj/nZ3f////S/x+h0hO6ZpeyNm/KzvOZnefbM0vvm6eNabv3y9PCmsAAAAEVNcAQAAAASdFJOU///////////////////////AOK/vxIAAAAJcEhZcwAAFxEAABcRAcom8z8AAAR4SURBVGhD7ZrrlqMgEISjM8Z79P2fdquaBi/BCI5k//BNzlnGIEU3TdM6+8hkMplMJpPJZNJRlLego0VR/PxWN/GsdcxgiqfeeguNjhrKreJV1eqwYdS4o7u0Yu/0AwaLGgs3PLV5A1Oc7wvM9qXtG4AnJ22G8IrrfkYZN1xfVaM274Cu1GYIN6vD9tvVu98AJNoSqLcYMoACXRN4fjajn9Gja6TtiPkQ9Wd9Ajb6BfVA22dtHvJ/1XFMUj3Num/UG57IU7c5Tb9lO48lwy/1FLU9QdQ1a/XOKBsW82E7j4t4z0/NCbDLqYt4Uz7KXlpOHn06dOVFvRIC1EOw6uw+aLuEvRNTDEHboldCiFSHiVYcQLLTJgNR0SshiOfn+eNn8TyP71XtwhSsTU4EfSM9H3K+LzGP+FuZ7mINYIbX9vuvNg9Z1FGBbnY5yjKtInUe8fs9wvZFzQBHaxn3Ddv36osvYPuFbIPuceu+KYBHp662x3s+wnb0liJCQczbqWMe1zwfYTsdvAQ9pWz1rupJbRfjrXyPqbiZX1aXEYqifPuRDgDq7gFFnvrmviz6GeLL/rvsebHdVzlaIxfbCzS3/M3zNuZ96ja8nbqv02gy79/W/ZO6Pd/lTB3avuGj6jS0L3wBJANc9nxobcMlHzXZ2JiQSdP7l20PVKfBmyNGKCHL2EusTi/Pq0zj4MneJ/Y8N7cG/o4CwhxCZpbAdkYd/H6UlcpqcBVHGs9zdenZMy56vtXnYMLYGqRlbII6CHq7E2m7refX+53ph2nUmmvUQ0y/6vm9Ol29UT9dH+FqzPf9y33kV7bkG9lsrnT+TJqo21WThxQIFm2G8Hf1sm3mrmvqK2/9At9dIMl2K9z+7k1ECmPnS4UfCbZ9gwZEzyy75hmpH6K+PLFbdC/IxhgHPEE1HQ8h4IqgIELUH3W7gybK6VYNtTO3lQsxQRem7kPElwQv1LwWIx8SdT5EvHlbZoZIhDySk6uKIyi4zL5NyMwU/r6fqTEskWygiP82Fn9BR4KA3vGu55z9tYYp/7R5Dgeq2ro//OFH/+FHbuKUD7c2x9PmOb5a+hjxE4spn9/NDsCqRIRSlLyo4w7fapUa7ugWEUpFOwQj8Yyl9eQ0bkKRx7qEncfXgMx7WPP13Sg2MzPLpSR4SwhaPmm0JVVHdn7LZ5zRZFcb7W0KvhN4Vh+pfqzIi4n3R3+xL3HSgJA3yRQNI0/LzZoLSdXhebFdEhXlRXyVYbxReRfwvNnumAblZc2d2wF+jyxyYsDopiHyUvqs04t3T9wHPKt+FvnNmgOEw/uD/n0gmdkTDtXJds0Bzv7wYyYe+touLKx3+9xAf6Tb7gCud5m83/5pTExP6Xhj/JF5n767CeSTg/KCSSCt6WZT+TU4r8SmI8ND3lM6S6G9i4MUsHZ9y6ecU9Ld5jBPtuvFNw+VXxG39eDQGgf08pfpakx3vOwo5WU94WoLuwe7tMh/rHKMX9UmqIeN4eOz/ba2UpRFwvM8k8lkMplMJpOxPB7/AJnxPiWNU3HnAAAAAElFTkSuQmCC;" vertex="1" parent="CFGaGI9f9zlW45BvHWe5-9">
          <mxGeometry x="61.920000000000016" width="89" height="89" as="geometry" />
        </mxCell>
        <mxCell id="CFGaGI9f9zlW45BvHWe5-11" value="" style="shape=image;verticalLabelPosition=bottom;labelBackgroundColor=default;verticalAlign=top;aspect=fixed;imageAspect=0;image=data:image/png,iVBORw0KGgoAAAANSUhEUgAAAXgAAAA1CAMAAAB88gCSAAAAAXNSR0IArs4c6QAAAARnQU1BAACxjwv8YQUAAAClUExURQAAAAAAAAAAAAAAAAAAAAAAAAAAAAAAAAAAAAAAAAAAAAAAAAAAAAAAAAAAAAAAAAAAAAAAAAAAAAAAAAAAAAAAAAAAAAAAAAAAAAAAAAAAAAAAAAAAAAAAAAAAAAAAAAAAAAAAAAAAAAAAAAAAAAAAAAAAAAAAAAAAAAAAAAAAAAAAAAAAAAAAAAAAAAAAAAAAAAAAAAAAAAAAAAAAAAAAAAAAAFT+SeEAAAA2dFJOUwAECAoOFRkaHSAhJCssLzY8QkVHSVBYXWJkaG13eYCEho2SmZ2eoq+ys7i/wMXMzdLX4e70+cxLH+cAAAAJcEhZcwAAFxEAABcRAcom8z8AAANaSURBVHhe7ZpxW9owEMZbmY4xdCqboGOyuk22ISJW8v0/2t67S9oklD3gIz5Ld79/mmtzqffmekmLmaIoiqIoiqIoiqIoiqIoiqK8NCNjrm1zP+RXc2PMctyx9rYcPK4+0DF/x2bbyH8as9hVk10YlpCdWF3YM1tihR+UO/olQq9c3ps9hoYH6vYEx7OZedZtkBjtFL4w05GZWuPlOTVmKC0o+HQozV1oq/AHj+aiV0ox3QOQrVpAeuVzJGyr8KdIw1qdXvl0SDVh+Ulqw9Jma/fmHkX6DmdJCAvPVn6FK3bhhPdbMh+on0DD22aWXZ5zN9+FhsZI4zcsbzgA13hUKkB/XuiWOqJ5JQ8i/8KRmqFELDNi28Z8j4VHFldtGCtoQ1RZPlpfuAMXZz3MRHh/gFD40C15pMpQvbEmxO1kXRJXjjQjOAsj6868qFG7oQYcKTuPZ66fmcBLLAYriG05Qhey+ln+Ffdj4f0BZFdjS03olj42IwubmIickxWysmAyLy5tcVXmh5vIflwRGSCLJCV7e2tGIWc8QhdnIbFFeG+AQPjQLXkQBkvppKqPct5dF2oLLZoYKVQEz43z9rzWhA9dKktcwgF84aM7JQ8y22EzXPJqXcL3Hy9/oBCIBRk4+voyrxLOOxA+KjWhS2WJvOEAvvDRnZKnsKoDDmeD8D1scASJvqifeysHOzYIH+TnEd79Q5fK2l541ydp6qJtq6uLKhSenov5t/H5se0+cotsLcemjHcDMTQLoUtl/WcZ71YsIMtro/AIfeovrpgHKwKu+JW3Qfi6B5++jlwqS1w2Cx/dKXF8VUTNRuErHVGYuE/tFe9q1oSncd0ng4IflL/vavwBfOEjt8Q59fblCAjLYKPwCH3R5208qSMdLTBod42XXPJrEj7DFv3uBPq5j2ShC1nYx3+W5WOD8KR06JY4bvfOcOFuFJ6ylpmQBtVbLG+EkP4Md28UvnZYSeoHLs76tbHG8wYgvlPaIDzvqeUK0ix8dvYbAd/2oeGiEwoff6tpED47oi7eV5b4W03pf6tZFz6/kR8M2vWt5l8hmitl37gXrHa8FiUECtcExWNQeiu28gpgzyKkvzlPjHxA/4Iwt3t9RVEURVEURVEURVEURVEURXltsuwPmVTRXLMJ4uEAAAAASUVORK5CYII=;" vertex="1" parent="CFGaGI9f9zlW45BvHWe5-9">
          <mxGeometry y="89" width="212.83" height="30" as="geometry" />
        </mxCell>
        <mxCell id="CFGaGI9f9zlW45BvHWe5-12" value="" style="group" vertex="1" connectable="0" parent="1">
          <mxGeometry x="-106.99999999999996" y="682" width="247.39999999999998" height="129" as="geometry" />
        </mxCell>
        <mxCell id="CFGaGI9f9zlW45BvHWe5-13" value="" style="shape=image;verticalLabelPosition=bottom;labelBackgroundColor=default;verticalAlign=top;aspect=fixed;imageAspect=0;image=data:image/png,iVBORw0KGgoAAAANSUhEUgAAAH0AAAB9CAMAAAC4XpwXAAAAAXNSR0IArs4c6QAAAARnQU1BAACxjwv8YQUAAAA2UExURe1xAPCMMPKVQO56EPWvcP////OeUPrbv/727/3t3/SmYPjKn++DIPzkz/nSr/a4f/fBjwAAAMOu1swAAAASdFJOU///////////////////////AOK/vxIAAAAJcEhZcwAAFxEAABcRAcom8z8AAANmSURBVGhD7ZrbcoMwDEQhl4Y01///2kpEBhlWdpxY6XTq8+RhUpYFbJ+m7RqNRqPRaDT+Gf3GZiufcWO3T/Eln/LiIDmYQT7lBaUfLSj+Wz7mBKWbCSe6Mhk6kUo/u5dPpXP5iwx9SKZzedfXPpneXZ3Lp9N7Kt/L2IN0enfZ768y9CCT/kXlzzJ2IJPe0ZJzkqEDufRv1/K5dN/y2XTX8tl01/L5dCo/eJXPp2+p/E3GtaH0600BlvWbn2VQesz6Tmzp6E7GlaF9JAbUvLuVP99PGorH5TMvRx0oHtTER+uDa36yPDBJfLQ+WKbcFSuAZcpbsQJYprwVawLLFK1KBxm6sqGa610FH3UAb6l0SxwVawabpLNfzuDyroqlwDLl65f9Zar2C+VpToVdHMuUp2LxWzVtZFTzLsMZZ8XKld+5bbRcfT45rrkdvBSLV1KKD7s4Nkkvv+SFdKMUBpukl2XQDnqITo5N0scveQMle1iU/5RiUSzLgz65uhIFPvoeZ3qZx1Q6efC3z5Wnx3kcv49elP+IX3J1ecHVyfE3lfX9kqbxo3p8clyztl/yEjYtbOrkuGZtv+QVbPorhI7ENet+hRdVjyJxzbp+GVWPI3HNmpax2s4oMpg7NsmaisWbdnQuXR7XrFce7OTqfuOa9coDi9H327k8+hWFTp4tX8UvuedqUmXL1/JLsqn0nMI16ygWt9zIWEF7XlhxDL+kn3vfL3H1aPXDNWsollE9Wv2wRtewDKN6fLNxedp+3yw/arSMFYvVz0uxRo1esXrP8DN+V7FEo5fQyxDPMbv8Vb7dfWXu09UjR1qvfvgZ09GJ8nV30ugYsPrh8mxBAfDuZpg0OgbNA/yMe/lzBp45aZRGa+ASkNZomiPF6TSNn61uviIPXkhfuGTAWAK4/NovhRfSo9V0Bi8Bllw/KE83qhtLQCx7S8rTjer288VyPVKcbsiJsQQwPBcMmSpOpx9AYmbMgxHlOwtK043qeCsXbI0uTTecNFU9Ub40HWm0OQ8CZvnCdLCRMMY8mLDKF6Y/JVRrrN8hytLhRpKvbl5eWfqL1R/XJ0NNUTpXH+S/BzXGfVWwZeCffD5dG1FM1o9ISDBl3SGDuYcGeE5CMo9MY/0Hbea+j8hHF2Qvu9FoNBqNRuOP03U/+PUpRXjTm9EAAAAASUVORK5CYII=;" vertex="1" parent="CFGaGI9f9zlW45BvHWe5-12">
          <mxGeometry x="63.45999999999998" width="93" height="93" as="geometry" />
        </mxCell>
        <mxCell id="CFGaGI9f9zlW45BvHWe5-14" value="" style="shape=image;verticalLabelPosition=bottom;labelBackgroundColor=default;verticalAlign=top;aspect=fixed;imageAspect=0;image=https://cdn3.iconfinder.com/data/icons/logos-and-brands-adobe/512/267_Python-512.png;" vertex="1" parent="CFGaGI9f9zlW45BvHWe5-12">
          <mxGeometry x="115.99999999999996" y="-28" width="54" height="54" as="geometry" />
        </mxCell>
        <mxCell id="CFGaGI9f9zlW45BvHWe5-15" value="" style="shape=image;verticalLabelPosition=bottom;labelBackgroundColor=default;verticalAlign=top;aspect=fixed;imageAspect=0;image=data:image/png,iVBORw0KGgoAAAANSUhEUgAAAXgAAAA1CAMAAAB88gCSAAAAAXNSR0IArs4c6QAAAARnQU1BAACxjwv8YQUAAACoUExURQAAAAAAAAAAAAAAAAAAAAAAAAAAAAAAAAAAAAAAAAAAAAAAAAAAAAAAAAAAAAAAAAAAAAAAAAAAAAAAAAAAAAAAAAAAAAAAAAAAAAAAAAAAAAAAAAAAAAAAAAAAAAAAAAAAAAAAAAAAAAAAAAAAAAAAAAAAAAAAAAAAAAAAAAAAAAAAAAAAAAAAAAAAAAAAAAAAAAAAAAAAAAAAAAAAAAAAAAAAAAAAACzfSIYAAAA3dFJOUwAECAoOFRkaHSAhJCssLzY8QkVHSVBSWF1iZGhtd4CEho2SmZ2eoqavsrO4v8DFzM3S1+Hu9PnQlcOGAAAACXBIWXMAABcRAAAXEQHKJvM/AAADhUlEQVR4Xu2a21bbMBBFk9ACDbQY6IVAubgFCi2XpDHR//9Zz8xI9oxiNy8Nq8uZ/ZBItkZCx9KR5DBwHMdxHMdxHMdxHMdxHMdxnH/IJLy8jUkwCdOtmLSM5osD+j58DmGqAhTDs6cQwu9zqWBc6XotUlmqckMZV+FLTJIW4SImM6JKBaTteDYnFd0DC67PhV/B8F4JWZjh30IZZvsxmTEJ4fYDvg8fAj9JF34VRaj7j4dwF5MdlF0FMBVOJIVKSHIXfhXKXsbVKinKDiuC2vUNMS8XfiVl7TUxNTzDCrq45otFuCiqMDtglWAn4OVzCijr5cF41OkRbpPwx6hn9kku7n5DJjxyzgqvm0PUDmWbKNw6f3MvDemSPaAe5xj71L9duDTBV4vwA4vmdEsLv3MvAaN5rfbybggS3nBxmQoSCq6RMcKb5vC30PMBHIXJQ8welv+wHlA7u+wskZ1hlcRYoxy8e7o/2EsqidVMRJaiMfxl7yfNLrdILKoGORqoyDWSy6dtzkZhJGAtH15BbAhvS/aB6BPRp+vByyJDeJ7lRvhxxUUap4nXNZCQL8l8SpXiKmK08La5PEokxnRBlC3ZB6LFyPYG8kc5C+poMm8j/JC9RjlNq/AckCqPSE4JnzVnouJIaHK6ZC8Qo5BPdLIGwqZOGuEx+PClnCbGatKuphF+7+PpDZzECp81Z6LqUNY8K9kLuLviAnn/2oVnr1FO09gAsf0OH5nw47gwuvAa7ljUru6t0C48eY12GgjGtwWuyQpPrxqevp8fvc89Pmvu78Lrkv0AUtV7ZXUUAu3Ck9dopzFRUAhpIyFu33E1S4tr1lweJfdsrk9Ag5M0f7GVkNcxPHA7hB/N77TT8JBOrwxKXqTbx26ZW03WnJ0n+a5Gl+wJECSNJ/R5gXMj7Z7R2w7hB+XiOT6oCIo/Ypc9zF+SpdGK04CcgDLhbXNWeHzSPv5ritIlewIsgIWNaYE07hIeIzzbx9Rn0wUPfSsheTxxyX6hhbfN2ah076fYoCnZE8iEYxIZfiVyy/O6S/iojGabwpZ+CIkFD39JlWwTRnjTXBaFYypGRPauRkpuKqP5K/psy1PeWOLrmvWSjmUrf5/ZHHajTawXLBuXmFfH1dK5eENRe6C1gpVHeEVb+6/BSHydXyOGx/SPC0/xhOA4juM4juM4juM4juM4juM462Ew+AMVW9wzALFVgAAAAABJRU5ErkJggg==;" vertex="1" parent="CFGaGI9f9zlW45BvHWe5-12">
          <mxGeometry y="93" width="234.12" height="33" as="geometry" />
        </mxCell>
        <mxCell id="CFGaGI9f9zlW45BvHWe5-16" value="" style="endArrow=classic;html=1;rounded=0;exitX=1;exitY=0.5;exitDx=0;exitDy=0;flowAnimation=1;dashed=1;" edge="1" parent="1" source="CFGaGI9f9zlW45BvHWe5-10" target="CFGaGI9f9zlW45BvHWe5-20">
          <mxGeometry width="50" height="50" relative="1" as="geometry">
            <mxPoint x="-287" y="494" as="sourcePoint" />
            <mxPoint x="-43" y="728" as="targetPoint" />
          </mxGeometry>
        </mxCell>
        <mxCell id="CFGaGI9f9zlW45BvHWe5-17" value="" style="endArrow=classic;html=1;rounded=0;entryX=0;entryY=0.5;entryDx=0;entryDy=0;exitX=0.977;exitY=0.424;exitDx=0;exitDy=0;exitPerimeter=0;flowAnimation=1;dashed=1;" edge="1" parent="1" source="CFGaGI9f9zlW45BvHWe5-10" target="CFGaGI9f9zlW45BvHWe5-6">
          <mxGeometry width="50" height="50" relative="1" as="geometry">
            <mxPoint x="-281" y="481" as="sourcePoint" />
            <mxPoint x="-249.07999999999998" y="437" as="targetPoint" />
          </mxGeometry>
        </mxCell>
        <mxCell id="CFGaGI9f9zlW45BvHWe5-18" value="" style="endArrow=classic;html=1;rounded=0;entryX=0;entryY=0.5;entryDx=0;entryDy=0;exitX=1;exitY=0.5;exitDx=0;exitDy=0;flowAnimation=1;dashed=1;" edge="1" parent="1" source="CFGaGI9f9zlW45BvHWe5-10" target="CFGaGI9f9zlW45BvHWe5-13">
          <mxGeometry width="50" height="50" relative="1" as="geometry">
            <mxPoint x="-284" y="501" as="sourcePoint" />
            <mxPoint x="-43.920000000000016" y="391" as="targetPoint" />
          </mxGeometry>
        </mxCell>
        <mxCell id="CFGaGI9f9zlW45BvHWe5-19" value="" style="endArrow=classic;html=1;rounded=0;entryX=0.5;entryY=1;entryDx=0;entryDy=0;exitX=0.974;exitY=0.581;exitDx=0;exitDy=0;exitPerimeter=0;flowAnimation=1;dashed=1;" edge="1" parent="1" source="CFGaGI9f9zlW45BvHWe5-20" target="CFGaGI9f9zlW45BvHWe5-3">
          <mxGeometry width="50" height="50" relative="1" as="geometry">
            <mxPoint x="69" y="561" as="sourcePoint" />
            <mxPoint x="326" y="616" as="targetPoint" />
          </mxGeometry>
        </mxCell>
        <mxCell id="CFGaGI9f9zlW45BvHWe5-20" value="" style="shape=image;verticalLabelPosition=bottom;labelBackgroundColor=default;verticalAlign=top;aspect=fixed;imageAspect=0;image=data:image/png,iVBORw0KGgoAAAANSUhEUgAAAH0AAAB9CAMAAAC4XpwXAAAAAXNSR0IArs4c6QAAAARnQU1BAACxjwv8YQUAAAA2UExURe1xAPCMMPKVQO56EPWvcP////OeUPrbv/727/3t3/SmYPjKn++DIPzkz/nSr/a4f/fBjwAAAMOu1swAAAASdFJOU///////////////////////AOK/vxIAAAAJcEhZcwAAFxEAABcRAcom8z8AAANmSURBVGhD7ZrbcoMwDEQhl4Y01///2kpEBhlWdpxY6XTq8+RhUpYFbJ+m7RqNRqPRaDT+Gf3GZiufcWO3T/Eln/LiIDmYQT7lBaUfLSj+Wz7mBKWbCSe6Mhk6kUo/u5dPpXP5iwx9SKZzedfXPpneXZ3Lp9N7Kt/L2IN0enfZ768y9CCT/kXlzzJ2IJPe0ZJzkqEDufRv1/K5dN/y2XTX8tl01/L5dCo/eJXPp2+p/E3GtaH0600BlvWbn2VQesz6Tmzp6E7GlaF9JAbUvLuVP99PGorH5TMvRx0oHtTER+uDa36yPDBJfLQ+WKbcFSuAZcpbsQJYprwVawLLFK1KBxm6sqGa610FH3UAb6l0SxwVawabpLNfzuDyroqlwDLl65f9Zar2C+VpToVdHMuUp2LxWzVtZFTzLsMZZ8XKld+5bbRcfT45rrkdvBSLV1KKD7s4Nkkvv+SFdKMUBpukl2XQDnqITo5N0scveQMle1iU/5RiUSzLgz65uhIFPvoeZ3qZx1Q6efC3z5Wnx3kcv49elP+IX3J1ecHVyfE3lfX9kqbxo3p8clyztl/yEjYtbOrkuGZtv+QVbPorhI7ENet+hRdVjyJxzbp+GVWPI3HNmpax2s4oMpg7NsmaisWbdnQuXR7XrFce7OTqfuOa9coDi9H327k8+hWFTp4tX8UvuedqUmXL1/JLsqn0nMI16ygWt9zIWEF7XlhxDL+kn3vfL3H1aPXDNWsollE9Wv2wRtewDKN6fLNxedp+3yw/arSMFYvVz0uxRo1esXrP8DN+V7FEo5fQyxDPMbv8Vb7dfWXu09UjR1qvfvgZ09GJ8nV30ugYsPrh8mxBAfDuZpg0OgbNA/yMe/lzBp45aZRGa+ASkNZomiPF6TSNn61uviIPXkhfuGTAWAK4/NovhRfSo9V0Bi8Bllw/KE83qhtLQCx7S8rTjer288VyPVKcbsiJsQQwPBcMmSpOpx9AYmbMgxHlOwtK043qeCsXbI0uTTecNFU9Ub40HWm0OQ8CZvnCdLCRMMY8mLDKF6Y/JVRrrN8hytLhRpKvbl5eWfqL1R/XJ0NNUTpXH+S/BzXGfVWwZeCffD5dG1FM1o9ISDBl3SGDuYcGeE5CMo9MY/0Hbea+j8hHF2Qvu9FoNBqNRuOP03U/+PUpRXjTm9EAAAAASUVORK5CYII=;" vertex="1" parent="1">
          <mxGeometry x="-41.53999999999998" y="512" width="93" height="93" as="geometry" />
        </mxCell>
        <mxCell id="CFGaGI9f9zlW45BvHWe5-21" value="" style="shape=image;verticalLabelPosition=bottom;labelBackgroundColor=default;verticalAlign=top;aspect=fixed;imageAspect=0;image=https://cdn3.iconfinder.com/data/icons/logos-and-brands-adobe/512/267_Python-512.png;" vertex="1" parent="1">
          <mxGeometry x="12" y="489" width="54" height="54" as="geometry" />
        </mxCell>
        <mxCell id="CFGaGI9f9zlW45BvHWe5-22" value="" style="shape=image;verticalLabelPosition=bottom;labelBackgroundColor=default;verticalAlign=top;aspect=fixed;imageAspect=0;image=data:image/png,iVBORw0KGgoAAAANSUhEUgAAAXgAAAA1CAMAAAB88gCSAAAAAXNSR0IArs4c6QAAAARnQU1BAACxjwv8YQUAAAClUExURQAAAAAAAAAAAAAAAAAAAAAAAAAAAAAAAAAAAAAAAAAAAAAAAAAAAAAAAAAAAAAAAAAAAAAAAAAAAAAAAAAAAAAAAAAAAAAAAAAAAAAAAAAAAAAAAAAAAAAAAAAAAAAAAAAAAAAAAAAAAAAAAAAAAAAAAAAAAAAAAAAAAAAAAAAAAAAAAAAAAAAAAAAAAAAAAAAAAAAAAAAAAAAAAAAAAAAAAAAAAFT+SeEAAAA2dFJOUwAECAoOFRkaHSAhJCssLzY8QkVHSVBYXWJkaG13gISGjZKZnZ6ipq+ys7i/wMXMzdLX4e70+fHoQDsAAAAJcEhZcwAAFxEAABcRAcom8z8AAAM9SURBVHhe7ZptVxMxEIW7qIgFtVCVFwGLgKhQqazN//9p3skku5kkLXwAztnDfT6U7O7khtwmk2RhRAghhBBCCCGEEEIIIYQ8Hs3R3Dn39/hVuH4IzbtQqGIVx+2/N75QYeNu+TF+vjT2W5gkLL+EO/czbdfFZoo0vsqBc5cf8HP32rmHOt/8XBeaK9L4GhPn9rUEN1cbZFlrfKFI4yvAm5NQhEEPHfLrjC8VaXyFSTrKD/ewGk7cyaR1CxjRHP1Bmj4Pa+7WGa7czWcUkUuA2GtDPKWiGD9F3ELqgkQpMz6VQ623ctnXwqPj1+ErrzQ8LA7cbfbLT9wPrI24u4UULagnajY4T4y3IUqpCAsvNM5PhVTJGm/kxu1Svh/ga2HyCItrb3yt4WExc1ehFEGKvt0ZbUvKWGCJxEDTPO1keKHD0teQamxIoFQUz079F1kqpcYXLSa1Nu7cYmfUfIPZaLna8LCY9Qk5AOP9ZO5Grg+JV7BDOy4xNiRQKqJOGLRir1VKjbdyeS21GNMFtaoND4vyNw85Onjrb4ReChh5nfH1kJrxYl2sG9GrxPhMztTCM1WNV5WGh0Ut1fi+oIcdYT5vfzq8wPxHn7XnlRBQSzX6VK0WeqXE+EzO1Oqq+pbrDQ+LbtIKm/IeYIXx47Cc3Wt8qZgZb5RerPFxQnu8Z73x2lUFmd/Nvx/vvU9yfBYSKBWt8VbJGp/KrTe+0vCwQEe6lIz+oByMTx/4qys/jtPF1YZESkVjYaaUGJ/J5bX0mb0aMskBf+Y3eHG9wj5ix9+XUev7K8ySVGNDfEEoFOtjV5US4zM5O0/yXU2t4YGBrfEN9sRNfKUVjUeHlzg0ytbZjzFs7vXcgqAw5ExIT66Yj91UKTXeylnj8Sn7+K+xVrXhgdGdJJd+oEbj0fNwXzyWzCycquUYrrJ5MSE9maK10Cqlxls5Wys++6VzbUXDA2NT3nt0f7bojA/vQy51Uu/+1rJO7ubMv1WwIT1WMbPQKBnjjVxWC8fUtnhXUzRMnor4NZBnIh7LzLtP8vRg2ThF4pq2xbmYPCnYDClxASLPRDOVf1yYhxMCIYQQQgghhBBCCCGEEPLIjEb/Ac9g5zajAmydAAAAAElFTkSuQmCC;" vertex="1" parent="1">
          <mxGeometry x="-99.9" y="605" width="212.83" height="30" as="geometry" />
        </mxCell>
        <mxCell id="CFGaGI9f9zlW45BvHWe5-23" value="" style="endArrow=classic;html=1;rounded=0;entryX=0.5;entryY=0;entryDx=0;entryDy=0;flowAnimation=1;dashed=1;exitX=1;exitY=0.5;exitDx=0;exitDy=0;" edge="1" parent="1" source="CFGaGI9f9zlW45BvHWe5-26" target="CFGaGI9f9zlW45BvHWe5-2">
          <mxGeometry width="50" height="50" relative="1" as="geometry">
            <mxPoint x="49.00000000000004" y="224" as="sourcePoint" />
            <mxPoint x="525.925" y="368.5" as="targetPoint" />
          </mxGeometry>
        </mxCell>
        <mxCell id="CFGaGI9f9zlW45BvHWe5-24" value="" style="endArrow=classic;html=1;rounded=0;entryX=0.5;entryY=1;entryDx=0;entryDy=0;exitX=0.984;exitY=0.613;exitDx=0;exitDy=0;exitPerimeter=0;flowAnimation=1;dashed=1;" edge="1" parent="1" source="CFGaGI9f9zlW45BvHWe5-13" target="CFGaGI9f9zlW45BvHWe5-2">
          <mxGeometry width="50" height="50" relative="1" as="geometry">
            <mxPoint x="51.46" y="742" as="sourcePoint" />
            <mxPoint x="349.46" y="651" as="targetPoint" />
          </mxGeometry>
        </mxCell>
        <mxCell id="CFGaGI9f9zlW45BvHWe5-25" value="1" style="ellipse;whiteSpace=wrap;html=1;aspect=fixed;fillColor=#000000;fontColor=#FFFFFF;" vertex="1" parent="1">
          <mxGeometry x="-459.11" y="151" width="26.02" height="26.02" as="geometry" />
        </mxCell>
        <mxCell id="CFGaGI9f9zlW45BvHWe5-26" value="" style="shape=image;verticalLabelPosition=bottom;labelBackgroundColor=default;verticalAlign=top;aspect=fixed;imageAspect=0;image=data:image/png,iVBORw0KGgoAAAANSUhEUgAAAH0AAAB9CAMAAAC4XpwXAAAAAXNSR0IArs4c6QAAAARnQU1BAACxjwv8YQUAAAA2UExURe1xAPCMMPKVQO56EPWvcP////OeUPrbv/727/3t3/SmYPjKn++DIPzkz/nSr/a4f/fBjwAAAMOu1swAAAASdFJOU///////////////////////AOK/vxIAAAAJcEhZcwAAFxEAABcRAcom8z8AAANmSURBVGhD7ZrbcoMwDEQhl4Y01///2kpEBhlWdpxY6XTq8+RhUpYFbJ+m7RqNRqPRaDT+Gf3GZiufcWO3T/Eln/LiIDmYQT7lBaUfLSj+Wz7mBKWbCSe6Mhk6kUo/u5dPpXP5iwx9SKZzedfXPpneXZ3Lp9N7Kt/L2IN0enfZ768y9CCT/kXlzzJ2IJPe0ZJzkqEDufRv1/K5dN/y2XTX8tl01/L5dCo/eJXPp2+p/E3GtaH0600BlvWbn2VQesz6Tmzp6E7GlaF9JAbUvLuVP99PGorH5TMvRx0oHtTER+uDa36yPDBJfLQ+WKbcFSuAZcpbsQJYprwVawLLFK1KBxm6sqGa610FH3UAb6l0SxwVawabpLNfzuDyroqlwDLl65f9Zar2C+VpToVdHMuUp2LxWzVtZFTzLsMZZ8XKld+5bbRcfT45rrkdvBSLV1KKD7s4Nkkvv+SFdKMUBpukl2XQDnqITo5N0scveQMle1iU/5RiUSzLgz65uhIFPvoeZ3qZx1Q6efC3z5Wnx3kcv49elP+IX3J1ecHVyfE3lfX9kqbxo3p8clyztl/yEjYtbOrkuGZtv+QVbPorhI7ENet+hRdVjyJxzbp+GVWPI3HNmpax2s4oMpg7NsmaisWbdnQuXR7XrFce7OTqfuOa9coDi9H327k8+hWFTp4tX8UvuedqUmXL1/JLsqn0nMI16ygWt9zIWEF7XlhxDL+kn3vfL3H1aPXDNWsollE9Wv2wRtewDKN6fLNxedp+3yw/arSMFYvVz0uxRo1esXrP8DN+V7FEo5fQyxDPMbv8Vb7dfWXu09UjR1qvfvgZ09GJ8nV30ugYsPrh8mxBAfDuZpg0OgbNA/yMe/lzBp45aZRGa+ASkNZomiPF6TSNn61uviIPXkhfuGTAWAK4/NovhRfSo9V0Bi8Bllw/KE83qhtLQCx7S8rTjer288VyPVKcbsiJsQQwPBcMmSpOpx9AYmbMgxHlOwtK043qeCsXbI0uTTecNFU9Ub40HWm0OQ8CZvnCdLCRMMY8mLDKF6Y/JVRrrN8hytLhRpKvbl5eWfqL1R/XJ0NNUTpXH+S/BzXGfVWwZeCffD5dG1FM1o9ISDBl3SGDuYcGeE5CMo9MY/0Hbea+j8hHF2Qvu9FoNBqNRuOP03U/+PUpRXjTm9EAAAAASUVORK5CYII=;" vertex="1" parent="1">
          <mxGeometry x="-39.98999999999998" y="119" width="93" height="93" as="geometry" />
        </mxCell>
        <mxCell id="CFGaGI9f9zlW45BvHWe5-27" value="" style="shape=image;verticalLabelPosition=bottom;labelBackgroundColor=default;verticalAlign=top;aspect=fixed;imageAspect=0;image=https://cdn3.iconfinder.com/data/icons/logos-and-brands-adobe/512/267_Python-512.png;" vertex="1" parent="1">
          <mxGeometry x="16.549999999999997" y="97" width="54" height="54" as="geometry" />
        </mxCell>
        <mxCell id="CFGaGI9f9zlW45BvHWe5-28" value="" style="shape=image;verticalLabelPosition=bottom;labelBackgroundColor=default;verticalAlign=top;aspect=fixed;imageAspect=0;image=data:image/png,iVBORw0KGgoAAAANSUhEUgAAAXgAAAA1CAMAAAB88gCSAAAAAXNSR0IArs4c6QAAAARnQU1BAACxjwv8YQUAAACiUExURQAAAAAAAAAAAAAAAAAAAAAAAAAAAAAAAAAAAAAAAAAAAAAAAAAAAAAAAAAAAAAAAAAAAAAAAAAAAAAAAAAAAAAAAAAAAAAAAAAAAAAAAAAAAAAAAAAAAAAAAAAAAAAAAAAAAAAAAAAAAAAAAAAAAAAAAAAAAAAAAAAAAAAAAAAAAAAAAAAAAAAAAAAAAAAAAAAAAAAAAAAAAAAAAAAAAAAAAKARJToAAAA1dFJOUwAECAoOFRodISQrLC8zNjxCRUdJUFhdYmRobXd5gISGjZKZnZ6ir7KzuL/AxczN0tfh7vT5vgihWwAAAAlwSFlzAAAXEQAAFxEByibzPwAAAllJREFUeF7tmQ1T00AURVMqtFakiEJFpFRQ0FqtlOz//2ve95FNAmHFcWjG2XtmSLIfbzucvrxsoCCEEEIIIYQQQgghhBBCtsF4c7frl/9Maq3BTTj2SyJQfE9QfE9QfE9QfE+YLDkeLkP49a4o9Hxio6NPP0II39FrrRDKsxeucHCKsfJqqENKXGtPhtYxatMdNQ3aNd6EcxnJjCjrIwyDk5md1YVfh3BlU/V6vVRfI3w/QnkgY0q1VinfFtA1po9G4Sb4OfRjflSyIHdYjG7gxM7eK6kJWeJp5zasJ8XgAlOgEL7W+3oTyEyjXmuONZY64lEfuqI01z3vsyPKsvQM4dp6RfXMcxGjcDNzxbgNtOV5uqgLRXutao1EFAZf39onZkcsD1oxTLHmaSMNtYVkNcNVyydM60rRXusJUegMjTsmKypZ9uu3pCkv377/jNpxXHepPVXmRHPttTTgD1G4w3w8O5Lix/4ofDbx6IjRmZESL/m4ujx780oK0AOF1mryFPHtqAU+Ic8SnxIPV9f1wxWtdrW2VpMO8ekoLHzZ3I/mREK8HgTkJS7u70/uJjoYNyr317LwVJR8s/iJ8VmREC9OoEnfeSANfY0dOVolXk1lW4+W0SU+FTWTbK82UrmREK81XphbhYAi4atU69jy91OlS3wiChMkdpHn8zUlvjj8hpf7LxMrDPLC+fCvLhiNdIpHej8S5cYxL9Pn619SCSVbYuGJOc12690T2JfMUXCONqwM2wWbHCPP7V+PDI5W0L7y/5EQQgghhBBCCCGEEEIIIf8ZRfEbbqOdg+tzT3kAAAAASUVORK5CYII=;" vertex="1" parent="1">
          <mxGeometry x="-112.09" y="212" width="234.11" height="33" as="geometry" />
        </mxCell>
        <mxCell id="CFGaGI9f9zlW45BvHWe5-29" value="2" style="ellipse;whiteSpace=wrap;html=1;aspect=fixed;fillColor=#000000;fontColor=#FFFFFF;" vertex="1" parent="1">
          <mxGeometry x="-116" y="131" width="26.02" height="26.02" as="geometry" />
        </mxCell>
        <mxCell id="CFGaGI9f9zlW45BvHWe5-30" value="4" style="ellipse;whiteSpace=wrap;html=1;aspect=fixed;fillColor=#000000;fontColor=#FFFFFF;" vertex="1" parent="1">
          <mxGeometry x="261" y="356" width="26.02" height="26.02" as="geometry" />
        </mxCell>
        <mxCell id="CFGaGI9f9zlW45BvHWe5-31" value="7" style="ellipse;whiteSpace=wrap;html=1;aspect=fixed;fillColor=#000000;fontColor=#FFFFFF;" vertex="1" parent="1">
          <mxGeometry x="-138.11" y="485.98" width="26.02" height="26.02" as="geometry" />
        </mxCell>
        <mxCell id="CFGaGI9f9zlW45BvHWe5-32" value="&lt;b&gt;Passwordless &lt;/b&gt;Authentication Flow" style="text;html=1;align=center;verticalAlign=middle;whiteSpace=wrap;rounded=0;" vertex="1" parent="1">
          <mxGeometry x="-433.09" y="563" width="179" height="39" as="geometry" />
        </mxCell>
        <mxCell id="CFGaGI9f9zlW45BvHWe5-33" value="6" style="ellipse;whiteSpace=wrap;html=1;aspect=fixed;fillColor=#000000;fontColor=#FFFFFF;" vertex="1" parent="1">
          <mxGeometry x="-189" y="397" width="26.02" height="26.02" as="geometry" />
        </mxCell>
        <mxCell id="CFGaGI9f9zlW45BvHWe5-34" value="8" style="ellipse;whiteSpace=wrap;html=1;aspect=fixed;fillColor=#000000;fontColor=#FFFFFF;" vertex="1" parent="1">
          <mxGeometry x="-96" y="648.98" width="26.02" height="26.02" as="geometry" />
        </mxCell>
        <mxCell id="CFGaGI9f9zlW45BvHWe5-35" value="&lt;b&gt;Indexando&amp;nbsp;&lt;/b&gt;foto do cadastro no&lt;br&gt;Amazon Rekognition" style="text;html=1;align=center;verticalAlign=middle;resizable=0;points=[];autosize=1;strokeColor=none;fillColor=none;" vertex="1" parent="1">
          <mxGeometry x="536" y="406" width="184" height="41" as="geometry" />
        </mxCell>
        <mxCell id="CFGaGI9f9zlW45BvHWe5-36" value="&lt;b&gt;Salvando e Associando&lt;br&gt;&lt;/b&gt;RekognitionId x UserId" style="text;html=1;align=center;verticalAlign=middle;resizable=0;points=[];autosize=1;strokeColor=none;fillColor=none;" vertex="1" parent="1">
          <mxGeometry x="318" y="402" width="152" height="41" as="geometry" />
        </mxCell>
        <mxCell id="CFGaGI9f9zlW45BvHWe5-37" value="&lt;b&gt;Prefixo: &lt;/b&gt;rekognition-sign-up/" style="text;html=1;align=center;verticalAlign=middle;resizable=0;points=[];autosize=1;strokeColor=none;fillColor=none;" vertex="1" parent="1">
          <mxGeometry x="-248" y="180" width="171" height="26" as="geometry" />
        </mxCell>
        <mxCell id="CFGaGI9f9zlW45BvHWe5-38" value="" style="shape=image;verticalLabelPosition=bottom;labelBackgroundColor=default;verticalAlign=top;aspect=fixed;imageAspect=0;image=https://cdn-icons-png.flaticon.com/512/1160/1160358.png;" vertex="1" parent="1">
          <mxGeometry x="-217" y="111" width="40" height="40" as="geometry" />
        </mxCell>
        <mxCell id="CFGaGI9f9zlW45BvHWe5-39" value="&lt;b&gt;Imagem: &lt;/b&gt;foto usuario,&amp;nbsp;&lt;div&gt;c/ username no metadata&lt;/div&gt;" style="text;html=1;align=center;verticalAlign=middle;resizable=0;points=[];autosize=1;strokeColor=none;fillColor=none;" vertex="1" parent="1">
          <mxGeometry x="-242" y="56" width="154" height="41" as="geometry" />
        </mxCell>
        <mxCell id="CFGaGI9f9zlW45BvHWe5-40" value="Challenge &lt;b&gt;Orchestrator&lt;/b&gt;&lt;br&gt;(Authentication sucess or failure)" style="text;html=1;align=center;verticalAlign=middle;resizable=0;points=[];autosize=1;strokeColor=none;fillColor=none;" vertex="1" parent="1">
          <mxGeometry x="-305" y="356" width="193" height="41" as="geometry" />
        </mxCell>
        <mxCell id="CFGaGI9f9zlW45BvHWe5-41" value="&lt;b&gt;Criando Challenge&lt;/b&gt;&lt;br&gt;Definindo reposta certa:&lt;br&gt;RekognitionId baseado no UserId" style="text;html=1;align=center;verticalAlign=middle;resizable=0;points=[];autosize=1;strokeColor=none;fillColor=none;" vertex="1" parent="1">
          <mxGeometry x="77.55" y="495" width="196" height="55" as="geometry" />
        </mxCell>
        <mxCell id="CFGaGI9f9zlW45BvHWe5-42" value="&lt;b&gt;Verificando Challenge&lt;/b&gt;&lt;br&gt;Verificando a similaridade entre a foto tirada durante o sign in com a foto do user profile&lt;br&gt;Procurando por um face match maior do que 90% para ser a resposta correta" style="text;html=1;align=center;verticalAlign=middle;resizable=0;points=[];autosize=1;strokeColor=none;fillColor=none;" vertex="1" parent="1">
          <mxGeometry x="156" y="686" width="483" height="55" as="geometry" />
        </mxCell>
        <mxCell id="CFGaGI9f9zlW45BvHWe5-44" value="" style="endArrow=classic;html=1;rounded=0;entryX=0;entryY=0.5;entryDx=0;entryDy=0;flowAnimation=1;dashed=1;" edge="1" parent="1" target="CFGaGI9f9zlW45BvHWe5-45">
          <mxGeometry width="50" height="50" relative="1" as="geometry">
            <mxPoint x="-636.5899999999999" y="277.75449975023776" as="sourcePoint" />
            <mxPoint x="-445" y="165.495" as="targetPoint" />
          </mxGeometry>
        </mxCell>
        <mxCell id="CFGaGI9f9zlW45BvHWe5-45" value="" style="shape=image;verticalLabelPosition=bottom;labelBackgroundColor=default;verticalAlign=top;aspect=fixed;imageAspect=0;image=data:image/png,iVBORw0KGgoAAAANSUhEUgAAAH0AAAB9CAMAAAC4XpwXAAAAAXNSR0IArs4c6QAAAARnQU1BAACxjwv8YQUAAAA2UExURXqhFoKnJYutM5OzQqS+X7TKfMXWmd7nxebt0+7z4vf58P///9Xits3cp73Qi6zEbpu5UAAAABiLr4sAAAASdFJOU///////////////////////AOK/vxIAAAAJcEhZcwAAFxEAABcRAcom8z8AAARcSURBVGhD7ZqLspwgDIYPghdYRd7/aZtg8LLuqkk8nc7Ur50OaxfCJT8JrD8PDw8PDw8PD/89xlSWqAw9+3WMdXXTeh9eW0LXNnFMv9cP42K7s7qjbWpLFW7DuMZT8wthgj6taeN9PTBxNeTQ9U09WmvWkww+4Fwc2nUPmzs6YOxsOgzRVvT4G2lsWvr6KzRKNzCxtNSPZ4YXUiw9aK9X2mGaadhd5DdSUwd6qX2blzEM0vr15AYNfWRhmmy7po8iUp67jt9902fb2u0j4fgD2/1x5O0dWxf6bWA25KCOVjCEhaYGKl9kAG+lopoRBk/Fi8DEq/xtTQWDp+JFYLU8FdVAWx0VL5LQ6aisxIHsmKuIrvLqbnC7adtg7jgG6+jdHmJUbsfR56uUwNZo4kQsIZdrHeoNU10viDGASW0eQajhH24LsFyxxAmYgZG1BMaWhCREgy5Ezy8D1tFR3ZIr9NFd6IKxddOVZfMRnoB82OqZ65gSqTO+H6JL1W4mMbeqm362C3hyGZC7xPqyPbrZfRaC993EPr9+hXZxFti02SEeJbeZ6BT7fRc+ENrG2XVNCNVcl8+S23tqlerYb1LXQsBkN44fzjXwbb51WO2DSrDOySWX/yZbHR2moGtcwWXrt0Q5foRDQHLMnOAzkKcIwhVsUbfkF9COwPpGcgokgpskR8Xv7LedHSLBZV892VkxfPqzbFkkuFwtUfEz1aT7k+Gff+Mjp5KjE+axMmSCoxh7BJ52gOPsE5xXlJ7C0I4llzM25Cj/kgr3tNeU+yHf7csEl9PaE8Fj1uJpBvovvi8UXPZWKn0loSoo//IfrQgFl60fS26m5H8f5hieyoIVJ8olEsB7Ao6Ck53ETyW3wYJ/ZVObiQbXRQTDP5XcO2NZgGWsNbguPuKHOeg38+z5kyj/nScABYc3Eefx4B1RjC0L8OpzB8AdYNbzM+7iQxUqsVhOQLaEKgwJ3MmHFZNdtlZ0zZjJKkDvYw5evFMAqazAyw8xJbw5G+m/LgKLxpDcjqUDE8yR6NPatX1uUyAVZVoL1hv8ScP7nj2LYF2Z1sLaMVd7BcwXlYRo/BatSzLCBVUD0HWZ4AnJpcmC9iQJ1hU3nrwYuwcinOAMV2DH2Dd0G4Yoyq3QbZaQF6msU4STohS8UrFQXdF5PG5orKt2SnQb1U8MOsmNKsFpJaeN0Lq5g3UTnSALOutKwSkl9/GylQNYF0c5PMPprEOUE6cHugiHQGImjrFawWXRiCUHclWmxLI73gmt4HRprVpwKslps0JALjlthEPkA9BGOAQkJ2wDtgrlOWxKySUbTn7ZRLvsWfEwfGaO4dC2Vm8Z2LKQ/nIHyrldkRWtmC+C/DCeCNim+T28bxe3fKo8/RP5d+D3N90qi6+20XUZ4IfbbGfSqgOEL9Dngu+v/FTOxi1v7n0hdP1476i3mN0rjJnghyGm3zS8paqsTfin+osv1D48PDw8PDw8/Mv8/PwBx9g+HFVEH8EAAAAASUVORK5CYII=;" vertex="1" parent="1">
          <mxGeometry x="-386" y="120.5" width="90" height="90" as="geometry" />
        </mxCell>
        <mxCell id="CFGaGI9f9zlW45BvHWe5-46" value="" style="shape=image;verticalLabelPosition=bottom;labelBackgroundColor=default;verticalAlign=top;aspect=fixed;imageAspect=0;image=data:image/png,iVBORw0KGgoAAAANSUhEUgAAAW8AAABTCAMAAABnLXZEAAAAAXNSR0IArs4c6QAAAARnQU1BAACxjwv8YQUAAAC0UExURQAAAAAAAAAAAAAAAAAAAAAAAAAAAAAAAAAAAAAAAAAAAAAAAAAAAAAAAAAAAAAAAAAAAAAAAAAAAAAAAAAAAAAAAAAAAAAAAAAAAAAAAAAAAAAAAAAAAAAAAAAAAAAAAAAAAAAAAAAAAAAAAAAAAAAAAAAAAAAAAAAAAAAAAAAAAAAAAAAAAAAAAAAAAAAAAAAAAAAAAAAAAAAAAAAAAAAAAAAAAAAAAAAAAAAAAAAAAAAAAFJ7UbYAAAA7dFJOUwAECAoOFRkaHSAhJCgrLC82PEJFR0lQWF1iZGhtd3mAhIaMjZKUmJmdnqKmr7KzuL/AxczN0tfh7vT5RBm1HwAAAAlwSFlzAAAXEQAAFxEByibzPwAAB7pJREFUeF7tmn1j0zYQxp0OWFdWINANMtbxErYx1m5QaBui7/+99tyb3mwnTRc3Lr3fH60dS6e7R7Ik29c4juM4juM4juM4juM4juM4Y2YWwis9HIT9d59DCGfH3/HZ3uXyCR+sZVXJ0mbTTH7Qg/EzOQ3hi/m9fSZvIAyzfEHn29C7ttkcLZ7z/9vAweLicxjO3VlYHtPg+/Fd2LCVfr1rmxgyt0fveTiZhRM92Tp7l1GK+Ya3Ua/eLZu3SW9y/mBx1Xt8Yw4WX+/Hw81a6dW7ZfM26T0NX+/DX10xKZSnH0O4+Llp+L/Mj7o+fcKvPN8LLMfkJa5cyMKF2t/T6TmVE1oii4rd7UwxWl8sQvhwmEpqC8v36d6obWLBBxRB7sw0vJouwjlKZs6DfUxCy+N72kUt4wMjUpPofAodfmPvwwuJQjpCj0N4zzUUES4dkxAUGYgbHpReJvVB1LujHej9B58sSQvVex/dwb/RCVPbjHoXzkzD3zjFdJM7H8ucf2S928YHRsZKnBHJG3T2Pmkq/6kj8CuNADiX/JpyhKhIg/nRRysXXqOWnAkc38Xvz2wEmd5d7cAmn0l9KQlxzx/zqOy3iTLSQbkzMPblsHlYOU9lDmWDgypdxodlJouYrWVwjocmnOUlVLpDC9FV6RY+pOEyU0cRhowvrl3c8HT/EnqbR7072pE+NGtS0tqGi3yNqWyq3qUzMMbOls5bGQx6PuswPiRwjZ0yhdJ/+d2uC+kMR6QTAlU/2XOrXdbCDP2WpxmaS3GNynS3E6c1tsYlVUpAk7scMblNKVQ5E40p3EQsY2fdxgcDg8DQcSZOtpV7+NMvf+E2ljM4yv6lyxyd1U4/J2ivTFdN7652YtRsjUviQkSqZJhN0a1yJpcwOh/LcJWVxgdhrq0BbrBH7wNdVkzvubqXQuSKq/SmIvTrlfTmy+v1Npu13lw9Gcucj2V2o7fdznxEN1qfDiGc/Xn87JEWx/MdX81C7Bnf6QjgyYp+uYLexfhOBoS2zZXju3A+ljG9a+PDYqsHkBWzUwf4dsKua/fYSsRel/O31M7iYD0UXpRW663uFPO3tpBo2RS9K2dU79L5WMYCaxkfkrw9EbFThygfZh8uk2rV+5OW3jCrj0wSMK6t0lssizUpiRb46UdEZFo2EQe1V+9PuHz0RZyv9yct40MyzfbT8AujplMHhIOdrDwbsPppeOGEtrx4RKR6HXpTmJ8eI5YHLxdcb43e2f5dSuIKPdzQjrnXpo6b0pk0vjPnuQz237/Gs5bxASneIPGk3K8D8Zriio9rvKXBAGO4eJfe6d0pP3bgGhXtawePfQT/KCVjCzL0mdomdUDLmXz+Jtj5WOYfuSU6jA8HgsyaQdOv8KdLh+bpvwjiwyHfdqXe9fuTlt4YWm/PUJaqE6v1/nLvzcJeZ6je+opDqyulzWaCjSGpW74/0cGUO4/T/XdooXp/Uhq/M0SJhqccEneUG9Db9jZxK3SXuQG9MRtiRW6OZKG949yA3tiuCDc2c42Ym5i/J0e00p7ZBt5xHMdxHMdxdkuderoGe6t0Feb2DI2nvGFfyLXyZ98sYsbP9OoOD0961ampp+vYQO+piUwPeUM+2bSC2NMPlfylZ3I6olcn109nXcvepWk8cEpuKwj07/khvzThDo/9vnuy15SbprOuZZaZHjIltx2EvQzUN+CT09HMKPYdgA+369XepZkmPbZtPacVhHWu6T6eAd4hQ55BqjmnNhlQYDZ/02eT8Mm+t2R1jDSiKWz95AjISDtV1pa8a6TkdgUh2Ffh1PW7BpGV6azyodUi1ZzTI5WOkhFUb3QDl+KOKOoosKw3uUgdX/hDse2m5HYEwWAVVYeSLzuHgylTT7MM0qnknOr4YKlFb0wRuLAvaW5lHSXtY2T4xUmWWsSdgLr2n2rhV7o90HNWjVuHqKi4JiW3FQRBn41p0WSGXD02pEo9jYkZnFgDp1mkOYvAr6tFR03rEBHLOkr6gKWXB0zJrYMgphdnmt1JJ+bhKMhST9Odxy6WC86croneubJVHSV2gg1sUyj9l9/jwGfSGY6oP2Bdm2KLVrusBfL8WSVNKNmKOhI09RRhRHBqAk5OOVRymvVOEoOqjhJvYbqxFR3PUqit3P9NyY35swZsiBPl3TAOeLz16N3M4O+MBxrrXURb1VGi3pSbo/DVHr23kpIrQSTSLDUOvQuvKXWgCiPqfbB4rk8NneO7I3TTOymgU2+33nQXXC8lt2w/z+1M/o9mfNepp2m2ZKLek9OTgwUfl/M31a/qKDa0bLkDA6Xkrggije/oxG5BXGXqaZlBGvVuZtg0c4Cid7U/6cg61aU27wwRsVPvKJ9kteqtwNT7k3gmFUBXEFkVkOLYNe101jyDNPmJQCwGkgnFZP9NP5Z1FCkHC6IqgXJoom98Xz8ltysI2no/XZj749l/p1eZmnoKYQUaGUnvOE5VRy0mkhV1FFQgQW4iJbc/iHMua76Mgyr1tMggze5D2qEQqjceMRBTzFfN6hhT0gqyZH0AGYZJyW0F8YC+N8SnH6v0TTOel0Tow6zTv1lGE+WoPvAMR/q+s2NG9H1nUEYS5x0Z3iB+n98po/o+7ziO4ziO4ziO4ziO4ziO46yjaf4DWCtwt3nvxxcAAAAASUVORK5CYII=;" vertex="1" parent="1">
          <mxGeometry x="-429" y="210.58" width="187.56" height="42.42" as="geometry" />
        </mxCell>
        <mxCell id="CFGaGI9f9zlW45BvHWe5-47" value="&lt;b&gt;Sign In / Sign Up &lt;/b&gt;Images" style="text;html=1;align=center;verticalAlign=middle;resizable=0;points=[];autosize=1;strokeColor=none;fillColor=none;rotation=336;" vertex="1" parent="1">
          <mxGeometry x="-618" y="203" width="156" height="26" as="geometry" />
        </mxCell>
        <mxCell id="CFGaGI9f9zlW45BvHWe5-48" value="" style="endArrow=classic;html=1;rounded=0;entryX=0;entryY=0.5;entryDx=0;entryDy=0;flowAnimation=1;dashed=1;" edge="1" parent="1" target="CFGaGI9f9zlW45BvHWe5-10">
          <mxGeometry width="50" height="50" relative="1" as="geometry">
            <mxPoint x="-636.5899999999999" y="341.11160229060874" as="sourcePoint" />
            <mxPoint x="-402" y="212" as="targetPoint" />
          </mxGeometry>
        </mxCell>
        <mxCell id="CFGaGI9f9zlW45BvHWe5-49" value="" style="endArrow=none;html=1;rounded=0;entryX=0;entryY=0.75;entryDx=0;entryDy=0;flowAnimation=1;dashed=1;startArrow=block;startFill=1;endFill=0;exitX=0.75;exitY=1;exitDx=0;exitDy=0;" edge="1" parent="1" target="CFGaGI9f9zlW45BvHWe5-10">
          <mxGeometry width="50" height="50" relative="1" as="geometry">
            <mxPoint x="-666.4425000000001" y="343" as="sourcePoint" />
            <mxPoint x="-393" y="543" as="targetPoint" />
          </mxGeometry>
        </mxCell>
        <mxCell id="CFGaGI9f9zlW45BvHWe5-50" value="" style="shape=image;verticalLabelPosition=bottom;labelBackgroundColor=default;verticalAlign=top;aspect=fixed;imageAspect=0;image=data:image/png,iVBORw0KGgoAAAANSUhEUgAAAgAAAAIACAYAAAD0eNT6AAAACXBIWXMAAAsTAAALEwEAmpwYAAAgAElEQVR4nO3de5wddX3/8Q8JKCIIiIgXLnKRnE1UVFovFcULVlpBhc2ZWS5CL79SBXaDV7KLuqhV0WpbelFptSraVtNWgeSchFKlKt6jSDgngUgIyc7ZJFyT7MzsnE3I9/eYbEJum+zZPTPn852Z1/Px+PzhP3LynZl9f2bOmc9XBAAAAAAAAAAAAAAAAAAAAAAAAAAAAAAAAAAAAAAAAAAAAAAAAAAAAAAAAAAAAAAAAAAAAAAAAAAAAAAAAAAAAAAAAAAAAAAAAAAAAAAAAAAAAAAAAAAAAAAAAAAAAAAAAAAAAAAAAAAAAAAAAAAAAAAAAAAAAAAAAAAAAAAAAAAAAAAAAAAAAAAAAAAAAAAAAAAAAAAAAAAAAAAAAAAAIE3lKz/4vLm9/QvyWuV581/LGQQAwF7K75t/2ty+AZPX6u7tdzjoAADshQYAAIACogEAAKCAaAAAACggGgAAAAqIBgAAgAKiAQAAoIBoAAAAKCAaAAAACogGAACAAqIBAACggGgAAAAoIBoAAAAKiAYAAIACogEAAKCAaAAAACggGgAAAAqIBgAAgAKiASimQJzf1/4MAABFNADF44vzp4G4JhDnZiPnHab9eQAACmgAimVUyqcF4m4ebwC2V31Eel6m/bkAAB1GA1AcRs59eiDur3cL/+3lizMaiDtP+/MBADqIBqA4fHH+Zu/w36sR+O5GKT9b+3MCADqABqAYfOk51xd324EagB1NwNpQnDdof14ASJ4xM1jWXWgA8m9ELn1uIO66ycJ/VxPgbg3Evd5Ieab2ZweAZAyZ48UzPxTPXM6SjqMByDcjgzMCcf6n1fDfqxH42aiUT9b+NwBAexrmndIwj0rDGPGML56ZxZLSAOSdL+610wn/3WpjKK6r/e8AgKlbbQ4Vz9wontm2Pfx3lmd+LTXztKIvKU8A8iuQnt/zxW222QDsKGYGAMiSYdMlDfPbPYJ/z/q8FBwNQD4ZKR/ui3N/MuH/VBOw3BfnDO1/GwAc2JC5bPuj/v2Hf/wUYJt45rwiLyUNQD4F4n4z2fDfc2aAETlI+98IAHtaZY6Uhvn2AYN/zybgYXnIPL+oy0gDkD++lC9PI/z3+oHg9zbJu47R/rcCwLgh8xrxzIMth/+uJuD2or4eSAOQL6PinhqIsyntBmDH04AhZgYA0GXMTGmYa6VhxqYc/ruagA8V8TDSAOSHkSsO8cX5eSfCf7cm4ElfnBvj/7b2vx9A0XjmhO3v9k83+HfV2PYnCAVDA5Afgbif72T479UI/HxULj5Few0AFEXDvEsa5rEEwn9nPSCPmmdJgdAA5IMvzttaGfWbcm0MxenRXgsARXi3P7ng372+IwVCA1C8Ub/pVzwz4NJnaq8LgLwZNrOlYe5JKfzHa9i8WwqCBiDb4tfxAnEW6Yf+Pk3ACl/KL9deHwD5erc/SDX8x38QOFKUUcE0ANnmi/sh/bCfuJgZACCpd/u/k3rw79kELC3CqGAagOwKpHxmcqN+U20EbmFmAICpGzZnS8MMdTT8d9Xn8n7IaACyO+o3EPc+7XCfwlcC631x/1B73QBkgTEHS8NcL57ZqhT+46OCh8zbJcdoALIp/qGdfqhP9UmAu42ZAQAOrGFOFM/8SC3492wCNsgG87y8HjIagOwJpexoh3mbjcAv4omF2usIwDbD5sKE3+1PoglYIsbkcvMTGoBsiYftdGrUb7rlbAqlfJH2egKwwVrzjBTf7U+iCfiA5BANQHYYOftgX9yf6Yd3oo0AMwOAQht/t3+ZeshPPir41ZIzNADZEYj7Wf3ATqUJYGYAUEiderc/mcrdqGAagGwYEfeN8cY7+mGdTvniRoG48+LBRtprDSBtDfMcaZjbLAj1qdbX83Ry0ADYb7OUjw3EGdYO6Q49Dbjdl3Juf3QLYMi8URrGsyDMp1fD5tK8HEQaALvFd8S+uLfpB3NHm4D18eZG2msPIG/v9ic3Kvj0PJwcNAB2C8V9v34gd76YGQDk793+H6uHd3JNwK/yMCqYBsBevjiv3PHduHogKzYCv2RmAJBlw6ZbGuZx9dBOvgm4QTKOBsBO8Xa68a/jtQPYjnI2jYhzifYxAZCnd/vbbwCelIZ5a5ZPChoAOwXifE0/eO0pX9w1Rs47TPu4AGjFOjNHPHOvekin3wRkelQwDYB9QnHL2oFrU8WvP46I8ybt4wJgMvHI3GFzhTRMqB7OnWsCFmd1VDANgI2jft2N2qFrU/niDGofFwCtvdu/UD2QNWrIvC+LJwgNgHWjfn+qHbg2lS/Oj4yUZ2ofGwAHMmTelOl3+9uvSBrmlVk7SWgA7BGI8xntwLWsngjl4pO0jwuAyd/tf9KCENau38kj5ogsnSw0AHYIpXy2L+5WC0LXmgrFdbWPC4ADaZj/tCB4baqvZemEoQGwY9SvL05DO3BtKl+cL2ofFwCTaZjXZ36yX/KVmXeWaQBsGPXr3KoduJZVnVf+gKyIvwLQD127RgUPmRdLBtAA6ArEucaCwLWmfHFGfXHOUD4sAFpmzAxpmB+oB69N5ZlfZmFUMA2AnhEpvzQOPO3Qtazeq3hIAEzLkDleGuZR9eC1qTzzadvPJhoAHYz6nSj8nUXxVyJKhwRAW4bNheqha1PFb0Z45hybzyoaAB2BuF+14G7bmvLFGdok7zpG6XAASIRnvqwevDaVZ9bLenOcrWcXDUDnBdIzVztw7Rv12/NmhUMBIFGrzaHSMPeoB69N5ZmqraOCaQA6KxT3hECcx7VD17K6vsOHAUCqGwEVaS+A1mqejWccDUCnR/06P7EgcK0pX9wfx+vSwcMAIHWeucqC0LWpIvHMK2w782gAOicQ51PagWtZPTEq7os6eAgAdIxnvmdB8NpU1o0KpgHoDEb97tsAhOL0dGj5AXTcGnO0eGaNBcFrT3nmKzadiTQA6dsoFx/ti7vGgjtua8oX98sdWHoAqhgVPFEjcLEtZyUNQEdG/d6iHbiWFaN+gcJomE+o33nbVRtlnTlZLEADkK5AnF4LAtea8sWNGPULFG3LYM/cZUHw2jUqeKk5RPvQ0ACkZ0Scl/jihtqha1f1XJXikgOwkmdOkIZ5TD147aq/0j4sNADpMHL5oYG4y/QD16qqMOoXKKph021B6No2KvgtmoeEBiAdgbj/bEHgWlO+uN5mueg5KS03gEzwzD+rB69d5UnDqP1hpAFIXiBOt3bg2lSM+gWw+6jgZRYErz2lOCqYBiCNUb/uY9qha1c5n0h4mQFk1jrzEkYF79MI9GocChqApEf9unfpB6495Yv7CyNXqP/YFYBN4sDTvvO2b1Twyzt9GGgAkhPf6WoHrmXFqF8AE4gfeXvmFguC16ZaKRvM4Z08X2gAkhGK+3pf3K0WhK41FUr5ooSWF0DuMCp43yYg/pFkB9EAtI9RvxM2AB09jwFk0bB5g3hmqwV33zZVx+6caADa54v7Pe27bZvKF2elkXJHn2QByKp4II5+6NpUT8g605FtUmkA2hNPttMOXPtG/ZY7/lsWAFkeFdwwP7EgeG2qX3RiVDANwPSNSM8cRv3u3QQ4Km+zAMgyRgVP1ASk/v40DUA7o36de7TvuO0qp8qoXwDTM2TmWnDnbdeo4CHz5jRPJxqA6Yn3s9cPXHuKUb8A2ueZr6gHb4FGBdMATF0g7oXagWvfqF9XdU8LAHmwzjxTPLPcguC1qSppjQqmAZiaQC45PhD3Ue3Qtasc9V0tAeQFo4L3bQI8c2UaS00D0DojgzMCcX+gH7j2lC/uLxn1CyBZDTPPgjtvm2pUhswZSZ9mNACtC8S9XjtwLauNo1I+OelzEkDRxY+8G+ZWC4LXnvJMXRrmsCSXmQagNYz63bcBGBH34iTPRQDYJf7xW8M01IPXrvpSkqcIDcDknpB3HuWL85AFd9wWlfMV/lQBSNewOZtRwfs8CXCTWl4agMn54nxbP3DtKV/c3z0i7zgiqXMQAPbPM5+24M7bpnpChs1JSZwyNAAHFoj7Xu3AtW/Ub88r+HMFoJOjgn9qQfDaU575sRgzs92lpQGYdNRvoB26ltW8ds85AJiadeZkaZiN6sFrV13f7mlEA3CgUb/uby0IXIuKUb8AtHimbEHo2jYq+E3tLCkNwMR8cb6oH7g2lbN+RHqOa+dcA4D2NMy/qgevXTUknjlmustJA7AvX3re7ou7TT90bRr165zT3oULAMmMCl5hQfDaU5757nSXkwZgT4z6nbAJ+DR/uADYYa156fbJeNrBa1N55j3TWUoagL1H/Trf177jtm/Ub/lpyV28ANCuIfM+9dC1b1Twy6a6jDQAu/jifkw7cG0qX9yRSC56MX+sANg4Kvg2C4LXnvJMTdaaZ0xlGWkAxoXivM4Xd4t26NpUI+Jcks7FCwDtGjbHSsMMqwevXfVPU1lCGoCnRv2u1g5cy+pf+QMFwG5D5o2MCt7nSYDT6vLRAGx/9P8fFgSuNcWoXwDZ4ZkbLLjztqkeb3VUcNEbgEDcK7QD175Rv84rE7s2ASBVjAretwnwzI9aGRVc5AZgs5RnM+p37yag532JX58AkKr15hTxzCYL7r7tKc98bLJlK2oDYOTcpwfi3q19x21XOYuNyEGpXJ8AkKr4u2/t0LVvVPAbD7RkRW0AfHH+QT9wbSpngy/l56V2bQJA6hrm6+rBa1cNyVrz7P0tVxEbAF+cP2bU796jfnvemvq1WUBrZWqv5QJod1Rww9xnQfDaU5757/0tV9EagEDKLwzEeUT/jtumcm7gj05ylsnoKXWJ5tUluqsmzSprC3RSw7xSGqapHrw21bC5ougNwI5Rv/+rH7j2lC/Orxj12766NOfUpXl9XZr1ujTNrorGlok5OoH/BICWeeYD6qGbgVHBRWoAfHE+oh249o36dU/nr0p7oV+T5v17hv6etVyal7HGQOdHBS+0IHitHhVclAYgkPKrfHHGtEPXphqR8qX8UZrCnxQxM2oydlZdmjfUpfnAgUJ/r7qVdQY6jVHBEzUB/1C0BuBxKR/pi/ugduBaVl/nD9LkjJiZcejXpHljTZrDUwj9p6omUbRSzLNYb6DTGuYPt78Op333bVe9s0gNgC/uv1sQuNaUL84Dj8olBFILoV+X5vrphP4E5Xbsbx6A3TTM5ywIXZvqcWmYE4vQAHz/tD/7snbg2lTjX4P0vJq/D3taLebQeyU6vybRzTWJNiYU+rvXAtYc0LDUHCIN8zMLgtee8swP41HBeW4ALrqq32ya4UbaoWtTjYjzAf4I7fizIOaw3UJ/cwqhv/vbAEH832PtAQ1rzKmMCt6nCfhInhuAuDbP6PG1Q9eiWlL0Ub93izkq/lV+fEdel8hPN/T3fhsgukD73w8UF6OC924Atpxa+ZmrHdJp1vpDL+LHfwUf9VsT8+wdob+wLlGzk6G/11OAb2mvBTJk9gLztFI1XNxVCebNWRKeoP15csEzN6s/freojli2YVg7pNOsVUde+jML7rxVKx577EvP26VA7hPznN1Cf0wv9HdV/DVD/FsD7bVBRpQW+2/vqoZmZ5UqQb2rElw/a3E0S/uzZdYGczijgnc1ADOGtpo3f+ofN2gHdSrV27/y4UN72PRHnM9JAdQkPHHXCN7oSe3A389TgD/WXidkRKka/OvuDcBEzcDsajRb+3NmzrA5k1HBu5qAmQ+NmT++7rP3qwd2gtXd27/WnXftiwJxr9C+A1eupXke9XufjJ68W+hv0w/4SZ8CfFV7zZABZ99pDu6qho/srwHYs4JVpUp44+xqeNb2CXiYnGc+qP343aY6ZNVoeMH7B5dpB3cy1b/hwqv7S/FhHhHnnAI/+h/ZJOVZeRzBW5Po2jj0tQN9Gg3Ao3eKOVh7DWG5rsWj57QW/ntVJVhNM9DyqOBF2sFrUx29dOjtc/sGfpPxO/9Huq/5yJydh3lUyicXuAF4t+Rvs53l2iHefo2eo72esFypGn5pWg3Anl8TrI2bgbiZiJ8oaP+brLPOPFc8s047eK0pz5xQ7u0/tru3f3kmw79vYGP3VQO/t/shNlKeWcQ9AHxxvyMF2Wwna1WT6EvaawubDZoZXZVwuN0GYK96pFQNbp5VDc4/Mx6Mg3EN8zbxzDb18NWvSIyZES/JBb0fPr67r/9B7UCfWvUH3Vf3v36i0zoefVus8M/mqN+dm+3smLvvaQd1irU+Hjesvd6wVNei8A0Jh/9eTwbCx3Y2A/GrhlJ0DfN5CwJY++5/xe5LUu679sTu3oE1GXns37xw3sDb9nd4A3FuL1D4jwXivEYKtNlONmtswmYVkO2P7VNsAPZoBqrhE6VKuKBUCS+bfac5vMCjgn+uHsK6Vdl7Wdyr5p/e3TewzvLH/mPdffPPO9Dh9cX9UnEaAPdDYrmVYp4efw++Y7OdDfph3PmqSfPvtI8DbGTMQaVqsKZTDcBebxOEXdVwYdwMnFYt2PaVRR8V7Jm/n2hZuvv6X9bd2/+YpeG/tTzvukl3WYtDUTuYO1PO7UYGt3+NY5u1Yp6R8mY7WashI7yxhb10LQperRP+e1UlGN3ZDJzxvSeOKsSB8szl6kGsV9fsb1m6581/9dzegc3agb9XbSv39f95K4c1EPdC/XBOvR725ZLnS2E328lijbErI/ZUqgSfUw//fZ8MbO2qBnfFI4lfcuvIcbk+Zp75ZkGfALzjQMty4dX9r+vuHfCtCf/e/ve2ekh9Kb/cgoBOedSve8CvQTplmZijtTbbyVrVpFmICY2YglIleEA/8FtrBmb9T/CCnI4Kvl89kDtd68xT787vT7mv/61z+wYi/Qag/8NTOaSPyDuO0A7plOvzomi5mGPs2GwnW1WT5oOaxw2W6ar6r9AP+Ck1A0/GzUCpGl47e8noaZIXw+b3CjUqePw1yJb2Kr9wXv+75vb2b9EK/3Jv/8emc0jjR+QWBHUa9WuNUb8rxRy7W+hv0Q7TrFZNmi/v9LGDpUqV4K/0Q336lavNihrmWvVg7lwNT2Vpyr39c+Mf4HU6/Lv7+v92uofTF+fnFoR1ouWL43dy1G9dwpPs32wnW1WT5ic7dfxguVI1WK4d4kk3A6VFwZmSRfFQHM/8T0GeANw11eWZ2zf/T+Pv4jsW/r39/yQi097nIhDn33LYAFwmKcvaZjtZq5o070v7GCID4l39tEM7vcroZkXFGRX8jeksz9ze/t4Ohf83Bgfbe70tEPeT+Qr/9Eb9ZnmznSxWTdjRtfBK1fBj+kHdgScD1eChTDUDw+bc3I8K9szgdJenu2/goyk3AP999uBg2/tY+OL8aY7u/FclPep3t812VmgHYtGqJtFHkzyWyKCuSniPdjh3vBmoBGu7KuFN8Uhiqzcrapi/UQ/pNGvYtLVrXHdf/6dTCf/e/iXn9vY+PYlDGIrzhpzc+W9JYtRvPHd/hYyduWOznZXaIVjsin6bxDmOjHrxotFTtMPYgrJ3s6KV5unimV/n+AnAH7S7RN29A59P+Ad/37/88sFDkzmA8VcAlxyfk7v/Kb0CWdDNdjJXyyU6PalzHRkTv0ZnQQBbU7tvVnRa1SRyB9i2teY08cxm9bBOozaY5yWwQgfN7R3452S+8x/4afnKwUT3pTAiB/nihtoB3l45d0511O/um+3UpblOO+io/a1BNO3GDhlXqoS/1A5dW6tUDYKdI4nVNyvyzJ/m8O4/SOq3GOVyeebcvv5/b/MHf3df/N75R0sKAnGW64d4+qN+V4s5NB7BW5fopqJutpO9in6RxjkPy51WDY7vqgTbtIM2G2XBZkWe+ZZ6aCdby5JcnrgJ6O4b+M/pfec/cO+7rpp/jKQkEGeRBUE+rVG/gTjnT2GznU36gUZNZQ1q21+xDE9K69yHpUrV4H36wZrB2rlZUTW44rTq5mM7PCp4ZY6eANyS9BKVBwefNrevvzrFx/6/u+CagVQ3s/HFuTGbDYDzhck226lLNELoZrvpWC7RfjfkQk5tn6uvHaaZr137E8xe5CfxffaBDZvfz9Go4AnDpV3nXTF4WHffwP+1+Nh/rTvv2hdJygJx52mH+TRqmZHLD51gs52FNYki7dCiklyD6MdpXwOwSBxW4/P0tQM0T9WhzYoapj8nTwCuSmuJLukdfNbc3oFfTnLnv7487yMdGWcbP0bP2J2/v1kuKu212c4YoZvPxqMm0ZMrJIcbrGFipWpwpX5g5rm2N1dL45HEiW9WFI8Kbpg71AO83Ro2f5Tm9fnOeYNHze0b+M1+7vwf6b7mI5PuQpiUzVKerR3qrdZm+QvzkNz1bzWJfsjc/SLVWMvbXCPjStXg+/ohWZzauT/B6UuiUiIHcL05TjyzPuNPAFJ///iC9ww+t7u3f/me7/kPbCz3ze/oPhHxo/TxH9TpB/xktVJW8uv9Qj4FaP5vJ68JKCndsemYUiXYoh2KRa3ENiuK76CzOirYM09uH3LUARf0fvj47r7+B8cbgP6g++r+14sCX5yGdrhPVg/LZ3lfv7ANQLQ13mpZ49pAB5Uq/v/TDkEqoc2KPPN3GW0A1kgHub3Xndrd1//Ahb39bxIlvjg/0g74A5UvPVtWyMb7tYOIUl2DP9e6PtAhpWq4mADOyWZF8V10w/xGPdCnXj+QDotfERRFgThfsyfs3a2BOCvinf18cfp96Xn7Slkzj/AtdgNSk2ZV8xpBys743hNHlapBUzvsqMm+JgiHWt6sKIujgj3zlaJd7L64H1MK/I2+uHcF4twUv44YSvksI5c+c/fPVhPztLo0V2kHEKW9BtFY/Lqn3lWCVHUtCt9N+GasAamEj066WVHD/Ll6qE+tBop2qY+Ic0n6Ye8MB+IsDMS9PhS3PCI9c+K9CCb7bDWJ3k/4aoevNXVpZ64IdFypGt6iHmhUG18ThI/vd7Miz/x7hp4AuEW7/EMpvzbBoN802V19q1aJObIm0aMWBA9lwRrUpPm95M9+qIs3tNkx054QzuNmRavMkeKZB9XDvZWKJxoWzIhc+txO3tW3qibNT2mHDmXPGtQkGl0h5oikzi9YoqsSutqhRaW7WdFxv9hyvTTMmHrAT1ZrzbOlgAJxNx/orj4Qd2kgzs3t3tW3arn4z69L5GuHDmXdGjhpnndQUKqECwjg/DchL7xrdOzw5VvXzHzoydXSMKF62O9bTxT1D0Agzj37v6sfnNHpz7Nj217tsKEsW4OaRN/p9LmIFB2/wDyjVAlGtMOJ6uwaxG98vPBHW+aKZ86XhomfDiwQz9RVBwh55tdFvdhHpXxa2nf1rVou0el1ibZohw1l4xpEI/E2z9rnKBLSVQneRfgWtgH51T5zBR41z5KGOUuGzRXimRvFM3eJZ/wONQELuLD11aX53/pBQ9m7BtE7tc9RJKRUCb5pQRBRSmswe3FYbulEWWNekPrTAs/cwIWtqyZjr6pJtE0/ZChb16Am0c1cpzkQvzsevz5GABe5AQlWzV5gpjcJL367IMmnBfH/D1TVpfl97YCh7F6DmkQb4wFRXKoZ11X1/1g/gCj9NQiS2+7TmJmy3pwyracFnnlLYp8DU7ZcordrhwuVlTWIUt2yGx1QqgRf1Q8fSnsNSpVww6xbUn6/d+KnBcEeDcA6c3KqnwH7ZcTMqEt0j36wUPavQTRSk7G/5HLKsgVmZlclfFg7fCg71qBUCT/a8XPQmINl2MwWz/SIZz6z/X9DRU2al+sHC2XvGkRP1KW5YLk0L6uJOZzLNOO6qqNv0Q4dyp41iF8FfcmtI8dpn5foPDb80Q5XWyt6LP7B370Snc93/jlTqoRf1A4dyq41KFXDv9M+L9F5NYk+oB82lA1rUJPokZ2hv1T2s8EYMm7QzOiqhMPagUPZNxxoTnX0VO3TE53Dhj/6oWtBra1J88a6jJ5zp/A1XO51LQ5frx02lJ1rUKoE39I+P9E5dWl+2oIAojp+p99cHYd+TcbOMrLXMDDkW/yoVztoKEvXoBJsKy32X6l9jiJ9KyR4QV2igAAuTAOyitAvOmMOKlWDNepBQ9m7BpVwifZpivTVJfpnC0KJSncN6nVpXl+TaDbXFGT2kuBV6gFD2b8Gi0fP4XLJrxUSzWLDn3yHfnyMtc8zWKZUDT6rHi5UNjcKQm7UpPldC4KKSmANahI9WZforppE19Zk9DTtcwsW66oEKywIFyoLa7AodLTPVySPDX+y33jUJNoah35donnxbzm4TtCSly7aeHSpEl5WqoQLStUgUA8ZKp8bBcFadWn+QDvAqPZCf5kwtAttOvM2c9isanB+qRrcHE+C0w8cyrY1KFWDK7nQ8uNeic4jfLPTgNQkGq1Lc2E8gjee2aB9/iCnjl9gnrGzGeiqBJu0g4cq0EZB6OSGP3drhxo1aeiHO0N/hXDtocNOq5qnx78CL1XCG+MA0A4hSvspQPgxLsLsq0nzTwhf+zfb+a2YZ2qfK8C4BWbm7Gp4VtwMMD64mM0IGwVl32oxh9aluUY/6KjdQp/NdpAhg2bGU81ANfS0g4nqZBMQ3qh9+mH66hJ9kPDVbz7YbAe50bV4ZE5XJbi+VA1WEsb5bkhKlWCMjYKy6W4xR9UkelQ7/ApcbLaDwjQDy7XDikprDYJ/0z7PMHV1aX7GghAsVLHZDgrdDJSq4bVd1eAuwjhnGwUtCs7UPr/QOjb86Wjws9kOsLvTbx89uasSzNveDFSCbeohRrXbBNzOGZ4dy2T0lLo0/3t8XKz+nXHeqibRb+oSXbdMopL2sQasNvu28MSnmoFq8CRhnNGGhI2CMudeGT21LtFNbACUSPCz2Q7QjtOqm4+NRxJ3VcOFpUqwRT3UqJbXoFQJfxu/EcIVkD0rZPRF43vCb58wp34HnbXNduJGSvsYArlSumPTMU81A9WgSRhnoCGphK72eYPpi2fJ16V5Q12iQDtgbSw22wG0NyuqBL560FH7aQCCB9koKPvuE/OceO/4ukSPa4eudlLeAZQAACAASURBVLHZDmDpZkVd1WAzYWxXQ1KqBFdpnyNIRjxzPt5lri7NdQULfTbbAbK1WVG4UTv8qO1fAzzMRkH5Es+h39EIDOU49NlsB8gqNiuypwEpVcNB7fMByauJeVq8MU1Nmiu1AzuZYrMdIH/YrEj7a4CRl9w6cpz2aYA0txBuluvSXJ7B0GezHaAw2KxIqQkI/1770CP9RuBeic6vS/RL/WDff7HZDoDtzUBpcfjarmrw+a5KsFr7UXm+K/jJ2XeagzntiqEmY2fVpfl97bDfrdhsB8D+sVlRKsF/V/zDTDHmIM69wjYCC3Xu9JurxwcajZ1lhPMPQIvYrKj94O+qjr6FEw6xmjRfXpfmgppE2zq12Q4rD6BtbFbUYuiPb+S0cPaS4FWcdpjIcmm+pCbRzQnvN7B97n5NotmsOoDUsFnRhHf78aZNC0uL/Vdy6qHVHQh37DcQtRP6yyU6nRUHoL1Z0Zj+D+06W/GeDPHQpVKFP8KYnpqEJ+5oBMJJfrnPZjsA7FSozYoqQdRVCW+asyQ8QXvdkQ8rxRy74zH+xp2hf8cLo62XXxdueMPXggfO+pr/Mc43ANbL62ZF8UCfUiW8sbTYf772GiOflos55uuvGb3x3C+O/mSiLcBLlaDeVQmun7U4mqX9WQEg/5sVVcJH4z+6s5dsfDaHG2npqvqviJvmHT8mbaUh3d4MlBYFZ3JUAFgta5sVlSrhhvgP7Cl3PH6k9tohv2ZXw7Pir87aO1+DVfHTqfj/i5kTAKxm82ZFpWrwUFclmBc3LNrrhPyKz/+uSvDTNM5fmgEA2WDNZkXBqjj44+ZEe0mQU4NmxvanYJXwl515ihWsjX+wGv83GUUNwG46mxUti3+0GDci2v985Pi8XhyWS9VguV6DGz4Sf/0WNwNnLjWHaC8JALS0P0FXNbg/+buj8DfxH2W+M0VaZi8wT9v+Rkw1WKkY/BOd+4/tbAZ44gWgQJsV7digB0jJy243z4y/TurgU6zpNwPVIBgf5hVeNvtOczgnBYDcbVZUqgR3zFoU/oH2Z0d+zbrFHBEHf6kartMO9mk2x+HOZuC0qnmW9noCQBubFQVPvukr4T03nR3eFE9bYymRhtNv2/yc8adT4RP6IZ5QVYLRHZM9r4jHfnPmALDarMWjL3r1v4Uf/YNvBisv/vjo0JITdu26Nr7xSnTTPRIcr/05kQ8vuXXkuK5KcMOOx+j6oZ3ek4GtOxrsebMX+c/TXncAeMq9Ep5Ql2heTZp3TL7VatSMt2RlJzW002iOv7a6/S7ZgoDWaQZevDB4IWcRgI5bIaMvikO/LtFdNYm2TXVL1fEd1poL2EcdU/vtSbwD5L5z+gu8FfbS7W/qLIxezJkEINV91NsJ/f00AvH/z8KajL2KQ4eJzFnin7FjP4ut+qFrb+3cn+D0JVGJMwlA2+rSnBNvlVqXZj2JwJ/k64G76jL6Fg4bYqdXwtdtn9Pf4gY91L7NAJsVAZhW6NekeV/6oT9xI3CvROcbMQdx6IonmQ16qKfWoBI8yP4EACZkxMyoydhZdWneUJfm73RCf8JG4O7l0rws/nwcuvyL5+V3VYOfEN5pNwPBX5eqwWuYwgkUlBEzMw79mjRvrEmzoR/2B/ydwL1xI3CnmIO11w3pKlXCv6cB6NRvBsIhNisCChj6dWmu1w72qTcCzQfjHyGuFnOo9loiHfHQm65KsIkmoMNfYVTCR3fuTxDvocD5DeRAHJbx9+nxu/c1iTZqh3hCtSZuBJaKOUx7fZG8UjUcpAHQ+w1DqRo+zmZFQEatFfOM3UJ/swWBndITgejh+MeKd4s5SnvNkZx4U5zszvPPV7FZEZABcQjWpVmOQ78uka8dzh1uBDbFP2CsiXm29nFAMkqV4Crt8KP2XgM2KwKsEQde/OO4eJBOPGJXO4j1KxqJf9+wQoIXaB8btOfMpeaQUjVYSQhb2ohUgije4TMeSfyy20eey/kOdMB9Yp6zW+iP6YeufRVvPBQ/CblXRk/lpMyurkroqgcdNaX9CUqL/edrnzdAgTfboXZ7IjAWNwIrJJqlfQwxDcYcVKqGPyeEs7Y/AZsVAaqb7VD7bDy0cIWMnclpmS2zFo++UT/UqHZHErNZEdDCCN6aRB+rS3QPAZ7KVwPbatK8pSajp3EyZkdXJbidEM5PMzBnUdSlfU4BBdxsh6pJFN4jwfHaxx1T2w1wx9a36iFGJdoM3BDv+8C1gKJutnM/odzpHwg2P6l9/DF1XdXg3wjfnDYgbFaEAm228wChr/Z2wCOrxBypfT5g6mYtHn1R/OqZelhRqa5BqRqseWrnwkE2AUM+NtsZJvT1v35YLtE12ucFpi8OBgK4QE1IJXx450jieC4E1w6slvXNdvJcNWk+tFLM07XPEUzf6bdtfg4bBRW2GWCzItgnp5vt5LHerX2uoH2lavgx9TCirNisaPbisPyy280zua7QUfEudEXYbCcvVZNoWfw7DC6T7Iv/4LNREE1I11PNQBB0VcOFpUp42axbzBHa5ydyqsib7WS/oj/SPn+QnFI1uJK7cJqArn2+JghGdzYDp9zxOD/2RXvYbCf7VZPoh1wH+cJGQYR/16S/GWCzIkwDm+3kKvy3LZex13Ih5E/XotDhKQCNQFdLPyAMVmifr7BYTcITd5u7/6QN4UUlsgYLtM8tpMSYg7oq4c9oAmgCuiZvAD7DdYg9sNlO3puMaMu9wszxPCtVw7NpAGgAuiZZg1mV4Pe0z1XYs9nOtfGdvn5AUWmuQU2iL2qfb0hfVyVcQhNAE9C1v1cGK8Ha+GkR12JB7bbZznJCtyhNR+QvF//52uce0nd6deRlbBREA9C1/wFCf8N1WDBsttMsen1C+xxE55Qqwbd4CkAT0DXBGpxeCV/HtViQzXZ2jOAdsiCAKMUNf1aKeZb2OYnOYaMgwr9r4omB69hQKKfYbIcmY+ImIJqnfW6i80rV8O94CkAj0LXnGvwj12KOxJu51GX0nB13+hu406YJ2PPuv7maDX+KiY2CCP+uvX/9v2j0TdrnJdrEZjuE/BQavUu54JQYM1M88xlpmItknZkjxhzc6Y9QqoQf5SkAjUDX+Bo8cvadnT8HkaC6jL2nLlHAnT5NwOTnQPRbNvxRNGxOkoYxu9WYeKYunrlZGuZa8cz5st4cl/ZGQV2VcJgmgCagqxr+S5rnGjqgJqPnEv6Ef2s//hs9l4tS0ZB5014NwP7qcfHMXeKZG2XIXCbD5kxZaZ6e1MfoqgbvpQGgAZi9yOfvQdYtFXNIXaLHaQJoAib55f//aZ+rhdcw/6/FBmCi2vdpwTrz3OmsafzYt1QNltMEFLcJKFXDJ2YvME8r/DWZBzWJvkEDQAMwyYY/r9E+TwvPM59uowHYXw1Lw9zx1NOC8d8WzJxsrWcvDsvaIURprkHwjcJfj3lRk+gdNAA0AAdoAL6jfY5CRBrmOyk0ANN7WsBGQYVuQGYvDt7BNZkT8WtdNYk20QTQBEzww78tyyQqiQWMlJ8xKhefIkXlmV91qAFo6WnBsb9s/mlpcdDUDiOqs2tQqgQjxy8wz9C+HJCgmkTfpgGgAZjg7v+fNC60QHpeMCLOOYG48wJxbg7Erfvibg3EvVuKqmEeU24A9i3PhDPXPPm7Z67YuvKFP4lGCeP8NySlavBt7UsBCatLs0wDQAOw192/XxP/eWlebEauOGREeub44lwWiHNDIM7CQJwNgbhmP7VZimi1OUo97CdvBrYcs3TsQ6VqcHNXNdisHVRUOmswe3FY1r4ckLClYg5jHgANwF5N4MdTvqtf6osbHSDsJ6zNUj5WiiZ+lU874FurtbLWPPukO82hs6rB+dubgUq4kTDOS0MShLPvNIdrXw5IQU2a3+UpAE1Auxv+7Oeufv1Ug37/1fNqKRrPOBaEe6v1n3t89gVm5uxqeFapEt5Yqobr9UOMmvYaVMLvql0DSFdNmpfQANAA7Hj839fKObNRLj46lPJZ7d7VT6VGxL24cH8LGma+BcE+la8D/mzCf8duzUBXJWwQxtlqRmZXw0s6fu6jM1aIOaIm0ShNQLGbgIk2/En/rr718sX5SOH+JnjmXzLWAPjSMAd+e2TQzIibga5KcEOpEjygHW7UgdegVAnGXrpo49EdO+fReTVpVrQDiNJdg5Wy9kpfes71xb3WF/ffA3FqvrhbNMJ+4nK+pvm3oTw42PkJaA3zffVQn3otk9Xm0Fb/iV2LR+Z0VYLruyrBfYSxfQ1JqRJW0j3Joa4uzT8jgIvbhCyXTb/zxR3TD/kDPQFwf6h1fVx4df/r5vYOrCrP+8isjv6HPfOQBYE+nScBfzudf+7OZqBUCerawUeFO9ZgdOKvdZAfy8UcEw9/0Q4iSmcNHpEb1mkHfAtfAQxpXBvd8+a/em7vwOa5fQOmu7d/7YVXXndSR/7DS80h4pmtGW0Atoln2poa9+JFo6d0VYJ5XdXgrq5KsI1A1rj7D7acftvm5yR3UsNaNWneQQAXrwm5X353oPfvrSlf3G3xVMBOXhMXXH3tGd29/Y/F4f9U9favvOCageen/h8fMi9WD/L2moCHZY15QRJLMWvx6ItoBlQagDuSOH7IgLqMvUc7jKjOrEFNoq11af5gtfzft0bkL9TDvdXaLG5Xp64H96r5p3f3DqzfI/x3VHdf/7J3XTX/mFQ/wLA5Vz3E228C/q+VTYamYs6S8IS4GYjDKb5D5clAik1AJXhPkscOFlsmI8ftCAaCOIdrMH5so7vqEs2LJ/2NSvm0eMKedqhP7SlAz9s7cS24vded2t030Jgo/J9qAnr77774vfPT+3W0Z65UD/Bkan5aSxQ/ni5Vwsu6quHC+NfqNANJNgDBk6XFfvpPumCPmkQ/0g4qKtHQj8a/2onm/VZGntrZzci5Tw/E+Y12oE+9elqaU9COC3o/fHx3X/+DBwr/XU3AwE/LVw6mMyGtYb5gQXgn8RRgi3jmtZKy2Us2PvupZqDKZkUJPP7/UdrHDJaJg4IAznYTUpMorEtz4XJpXra/qX6+uH+rH+bTeQLg/F2a5/8F7xl87ty+gRWthP+u3wQM/O/llw+2/NpbyzzzPfXwTq4JWCWrzJHSIWd874mj4tn18UjieBc7ngxM6/H/vE4dL1jiHgmOr0m0TTvEqKmuQRTsDP2aHHhm9453/bdlswFwb0vr3H/nvMGj4sf6Uwr/XU8Cbr3iiisOSfQDxe/Tawd3srVAFMRb2O7anyDYRDPQUvhvm31beKLG8YKymkQ/J4Cz0IREj9ckuvleic7fe4Lf/oxIz3GBuNa/8neAqqdxzl/SO/isuX39v5pO+O/2dsB/nT04eHBiH8ozIxaEdtJPAv5EFO2+WVGpGj5BM7Cfx//V8OeaxwmK6hJ9SD/cqP083n90Z+jXxExpMp2RwRmBOP9jQYi38QTAGTUiByV5vp93xeBhc3v7f9hW+O/6OuDrg4ODM9r+UOvNcephrTUquFPYrGj/TwAWhx/SPjxQcp+MnkwAW9WADNUluikO/TvFTPsO0xd3vnaAJ1M9ibxbvnO8b3ffwOJEwn9X/WPbH8wzf6Ae1paMCu4INivaowGYUx09VfuQQFFdorstCL7CVk2aD9WkeWNNxs4yYtq+4w2k5/d8cZv64d1+heK+PolzPP7Ofm5f/20Jh//OJwF/09aHGzaXWhDUadYXxFZ7blb0u6J9TVCqhndrHwIoq0v0Ee0QLFrVpPlgkqG/k5Hy4b4492sHd1LlS/nydtekXC7P7O4d+I9Uwn9nXd0//d0LPTNoQUinPSr4fMmAwm1WtCgs3q6b2NMKiWZpB2JBql6X5vUrZOzMtM7BQNxvaYd2suV8vM0lOai7r/9fUg3/HVW+emB636U2zDfUQzr9JuBhechkatBMETYrmrMo6ti0TVhsRzhpB2RuQ3+ZRKn/GMoX90/0Azvx+lY7a9Ld1/+FToT/jtrW3Tcw9XGqnrlLPaA7U3eKMe3/aFJBHjcrihsbAWJ1aX7CgrDMfNUkerIm0dI49Gsyelqnzq4sjvptpXxxfzrdNZnb139DB8N/e3X39j85t/e6S6b0QRtm2IJw7lR9WDKua1F4Uj6ageAT2msJS9wrzTO0wzMPc/dXSJDYr9ZbZeSKQ3xxfq4d1umUs2E6azK3b2Cw0+H/VBPQN7C1u7ffaemDNsxh278j1w/mzo0KHjKvkZyINysqVYMrduxPkKnNiuYs8c/QXj9YpCbN+7XDNKub7WgeN1+cL+gHdXr1iLzjiKmsR7mvf55W+O/2JKBZvnpg8s2M1pmXqIdy55uAVfLoxGOrsyxbmxUFq7TXC5apSfOz2sFqc9UkGo1H8NZk7IqVYo4VC/jivC2ro35brRHpeVmr69HdO/Bn8Xfx2g3AeBMwEHbPu+6NB/zAnnmHeiDr1Hckx3bfrKirEkT6gb9XVYIbtNcIlqnJ2Ku0QzaLm+1oGZFLn5vxUb8tVs8FraxHuXf+u7d/B29B+O/WBPjlvuvO2u+HHjLvsyCMdWrIXCYFcOZt5rCnRhJbslnRnGrw+9rrAsvE76PHQ2m0QzdLm+1oiUfkBuIs0g/nTjwBcD4w2XqU+wYumNvbv0U78CdsAvoGNpb75k/86qdn/kE9iDVHBXtmlhSIDZsVlSrhkJjkZo8gR2rS/NuChv5jU91sR5Mvzoe1g7lT5Yv7Twdai+7e+X84t28g0g76SZqAh8u9/bP3+fCeqaoHsW4TsFRqU9vnIi92blbUVQlv6qqED3fu8X/4t9r/dlgqnkynH8adqZpEj+wM/aVikt3eNUWBlM/My6jfFmvJ/taifPV1b+7u6x/VDvjWvg7o9y68Zv4pe/wDGuY+9RDWr7+Wottzs6J1aTYA8X9H+58LSxkxM2rSHNYO5xRrbRKb7WjJ26jf1p4AOCsnWosLegdeM7d3YLN2sE+tCRhYc+GV1500fjDNDGmYyIIAtmFU8HmdvpasleJmRXFzEf//a/8TYbGaRF/M151+spvtaArE/aZ2ICs0AGNGynv80brg6mvP6O7tf0w70KdVvf0rL7hm4PnSMCeqh68t5ZkNWRsV3BGDZkZpUXDmjpHE7W9WVAkP+HUaIHUZfYt2aCdQq/IS+jv54lymHcZaNSrui3auQ3neR2Z19w6sVw/ydp4E9PUvO+LX64v6CuD+moDbszoqWGGzohXTevxfGX2z9r8BljNiZtYketiCEJ/W3P2aRPv+2CrjRsU9NRBnk3YQa9WI9Gz/w1V+3/zTuvsGGtoBnkS99eM3LhfvyVA9eG0qz3xQ+1rLXDNQDZe2ePf/6Nl3Zu9rTyioSfSVLIV+vKNhXk+UfI/6ba18Kf/FBb0fPr67d2C1dnAnWS/9ZnWVeujaVWMyZF6tfc3lcbOiUiX4ivbnREbUJfojC8J9ws124hG8NYmu7eRmO5oCcf5aO4C16+FDL/r7+Ltz7cBOo4778f3rLAhem+qBPI4KVt+sqOL/kfZnQ0bEr8XVJXrcktBX3WxHky/uH/riPKkdwNr1wJGX/lQ7qNOqd37oE2bGmi2eBcFrU31D+9rLy2ZFcTNQqoaLZy8o5rwFTFNNom/aEPrLZOS4Ih7E8VG/zrB2+NpQGw69eJV2UKdZL/z+by/c/vhbP3jtqWFzqfY1CBRWXaJ3aWy2E4/gXSXmSCmwHaN+F2oHry21eUaPrx3SaVb840bxzEfVQ9em8syIeOZ07WsRKKTVYg6tSbS5U5vtrBAzpW1f8yyef68dujbV5oN6oouu6s93AzA+GOj76sFrUxV4VDCgribRd5IP/uiJujQXxKH/WzHP1P432qaAo34nre+f9mdf1g7p1BuA2FrzQvHMI+rBa1N55rPa1yRQSHVpOklvtlMTOvr9MXLpMwNx79MOXJvKF/e/unv7nUI0ALEh88fbx+NqB68tFa/FkHl7h/7kAdgp3g53x2P6wmy2oykQ9xvagWtT+eKs3SjlZxeqAYg1zD+qB69to4I3mOepXZhAUdWkecsUgn9tPIK3LqPnZHGzHU2hlB3twLWpfHG3hOK8Ll6bwjUAK83TpWF+qx68NpVnlrCPPdBhdWm++8B3+s3VeZu732mjcvEpRR71O3ED4Hxk5/oUrgGIDZvZ4plAPXhtKs+8v9PXJlBo8St5dYma+9tsR/vzZZ2Rsw/2xf2ZduDaVL64P9x9B8BCNgCxIfOX6qFrVzEqGOi0mjSred5sR1Mg7me1A9euch4PpXzi7mtU2AYg1jD/YUHw2lS/k0d4ZRjo6EwAljt5I+K+kVG/+zQB79x7nQrdAKw2R4lnVlsQvDbV1/h7BCCzNkv5WEb97v3o3/nHidaq0A1ArGHOEs9ssSB4bapL0ro2ASDVUb++uLfpP263qZyakfIzJlqvwjcAMc8MWhC69hSjggFkUSju+/UD157yxRkdkZ6X7W+9aADirpFRwRM0Ab9iVDCAzPDFeaUvbqQdunaV85cHWjMagB2GzPHSMI+q333bVJ75TEcuXABof9Svs0I/cO0pX5z/nmzdaAB20zAXqIeuTeWZJ6Vh3spfJgBWC8T5mnbg2lS+OEOb5F3HTLZuNAB7aZgvqgevTeWZ9YwKBmCtUNyyduDaVPHrjyPivKmVtaMB2MtqcyijgvdpAhYzKhiApaN+3Y3aoWtT+eIMtrp+NAATWGfmMCp4n6cB1yR64QJAAqN+f6oduDaVL86Pdh/1OxkagP3wzHvVH7/bVZF45hX8xQJghUCcz2gHrmX1RCgXnzSVNaQBOICG+bYFwWtTMSoYgL5Qymf74m61IHStqVBcd6rrSANwAOOjgh+yIHhtqq+2deECQLujfn1xGtqBa1P54nxxOmtJAzCJhnm9eGarBcFrU108rQsXANof9evcqh24llXdyHmHTWc9aQBa0DDXWxC6do0KHjIvns75BgDTFohzjQWBa9WoX1+cM6a7njQALRgfFfwD9eC1qTzzS1lqDpnueQcAUzIi5ZfGgacdupbVe9s5jWgAWsSo4ImagE+1c+4BQEsY9Tvh3f932z19aACmYNhcqH7nbduoYM+c0+45CAAHFIj7VQvutjM36ncyNABT5JkvqwevTRWPCl5vjmv3PASACQXSM1c7cO0b9dvz5iROFxqAKRofFXyPevDaVJ6pMioYQOJCcU8IxHlcO3Qtq+uTWl8agGmIRwU3TKgevHZVX1LnJADsGPXr/MSCwLWmfHF/HK9LUqcHDcA0eeYqC0LXpmJUMIDkBOJ8SjtwLasnRsV9UZLnGA1AGzxziwXBa1OtlEfMEcmdnQAKiVG/+zYAoTg9Sa8zDUAb1pijxTNrLAhee8oz/5Lc2QmgcDbKxUf74q6x4I7bmvLF/XIaa00D0KZh8wZGBe/TCFyUzNkJoIijfm/RDty8jPqdDA1AAhrmk+p33nbVRllnTk5iaQEUSCA9fRYErjXlixu1M+p3MjQACTDmYPHMXRYEr031C0YFA2jZiDgv8cUNtUPXruq5Ks1TiAYgIZ45QRrmMQuC16b6ZFLLCyDH4kfcgTjL9QPXqqrEX4mkue40AAkaNt0WhK5to4LfkuQSA8ihQNx/sSBwrSlfXG+zXPSctNedBiBh8a/gtYPXrvKkYVI/jwFkVCBOt3bg5nXU72RoABLWMIeJZ5ZbELw2VYVRwQD2M+rXfUw7dO0q5xOdOlVoAFKwzryEUcH7NAFXp7HUADI96te9Sz9w7Slf3F8YueKQTh0DGoCUxLPx9e+8bRsV/PK0lhtAxgTiflI7cPM+6ncyNAApMeYgRgXv1QR4pr79KxIAxRaK8wZf3K0WhK41FUq54xPUaABSxKjgfZ8EeOamNJccgOUY9TthA/DPGseCBiBlw+ZsRgXv0wQkvqcFgIxg1O+e4e+Ls9JI+XCNY0ED0AGe+ZQF38HbVE/IOtPRr7oAWCAQ92rtR+32jfotq/04igagA+JRwQ3zEwuC16ZiVDBQJCPSM4dRv3s3AU6v5jGhAeiQ8VHBj1sQvDbVxzu1/AAUGbn80ECce7TvuO0qp5r2qN/J0AB00JCZa0Ho2jUqeMh0ZOAVAEWBODfpB27xRv1Ohgagwxrmq+rBa1d54pljOn0YAHRIIO6F2oFr36hf14pNUmgAOmydeaZ4ZoUFwWtTLWJUMJBDgVxyPKN+924CnL8SS9AAKFhrXioNM2pB8NpTnrlS41AASImRwRmBOHdq33HbVL64v+zkqN/J0AAoaZhr1EPXrhqVIXOG1uEAkLBAnI9rB65ltXFUyifbdKLRACiJRwU3zK0WBK89xahgIB9CcV/PqN89G4ARcS8Wy9AAKBo2x0rDNNSD1676kuYhAZDIqF/nIQvuuC0q5ys2nlg0AMoYFTzRkwBX+7AAmCZf3O/pB6495Yv7u0fkHUfYeELRAFjAM5+x4M7bpnpChs1J2ocFwBQF4lypHbj2jfrteYWtJxINgAXGRwX/1ILgtac882MxZqb2oQHQIkb9TtgEzLP5BKIBsMR6c4o0zEb14LWrrtc+LABawKhfO0f9ToYGwCKeKVsQuraNCn6T9mEBMAlf3C9pP263q5z1I9JznO0nDg2AZRrma+rBa1f9p/YhAXAAgfRcoB+4to36dc7JwklDA2AZRgXvvPvfJp65UWrmadqHBMCBR/0+qh26ltWns3LC0ABYqOijgj2zXobNudqHAcCko37dH1gQuJaN+i1n5q6FBsBSnnl/QcP/f2SDeZ728gOYRCDu9dqBa1P54o5EctGLs3Ti0ABYanxU8G3qgdy5iqRhrhVjZmgvPYBJhFI+i1G/ezYAI+JckrUThwbAYuOjgoctCOe06z7xjLWzMgDsxsh5h/nirtG+47arnK9l8SShAbDckHnj9tfh9EM6nfLMzbLBHK69zACmIBD3wkCcx/WDV79sHvU7GRqADPDMZ3MY/JukYazbHAtAi0Ipn+iL9YvnsAAABLlJREFU++Nih78zFkj5VVk9aWgAMmB8VPDP1EM7ufqFrDGnai8rgDYZOfvg+MeAxf09QM/7snwS0QBkRDwqePyuOfvv9i81h2gvJ4AEjYjzJl9cTz+QO1nOYttH/U6GBiBDPONkOPzXS8O8TXsJAaRks1z0HF/c2woS/ht8KWf+fWUagIxpmG9kMPxvl/XG+rHYABLgi3OZL26gH9JpjvrteWseThYagIyJRwXHr81ph3prFU8znLd9pgGAYm0NHIi7LKd3/zdITtAAZNCwOVMapmn5Xf8K8czLtZcKgBIj5Wf44tyYs7v/X2Vp1O9kaAAyyjMftDj8b97+pAIA8jIzYHzUr3t6no4oDUBGjY8KXmhZ8MdvKVykvTQALJOHmQEjUr5UcoYGIMPWmedaNCr4F9tfVQSAHM4M+HoejyoNQMY1zB+qjgqO/9u82w+gVSPivjFLMwN8cR54VC55Vh6PMA1ADjTMXys1AEMybM7W/ucDyOTMAOfWDIT/WCA9r5acogHIgXiyXsP8vMN3/reIZ47R/qcDyDDbZwaMiPMByTEagJyIZ+t3ZlQw7/YDSM5mKc+2dGbAkqyP+p0MDUCODJnLUr7rXy5D5gztfyaAnLFvZkA+Rv1OhgYgZzzzzZTCn3f7AXRiZoD7mGb4++Ju86Xn7UU41jQAObPBHC4Nc3+C4b9RPNOj/c8CUKiZAc6PFO/+PycFQQOQQ8mNCv65rDMna/9zABSM4syApXka9TsZGoCcapgPt/G4f6t45obtbxcAgO7MAGeoQ4/+RzZJeVaRjjYNQE6NjwpeNI0GYK0Mmzdof3wA2O4JeedRvrjf6UAD8O6iLTkNQI7Fo4I9s24Kd/7fk7Xm2dofGwA6OjMgbjCKuOQ0ADnXMG8Tz2xr6d1+ALB/ZoBzT7Lhn99Rv5OhASiAhvnCJO/2v0z7IwJAS4xcfmhSMwPGR/06rynq0tMAFMD+RgXH7/Y3zGHaHw8ApiyQngvanRngi/uhIi89DUBBrDWniWc27/Zuv6v9kQCgLaG4J7QxM+AHRgZnFPkQ0AAUiGf+RBrmZ7zbDyA3jJRnTmNmwMO+XPJ8KTgagIIxptANL4Ccir/L98V9sIXH/tt8cc/T/rw2oAEAAOTC41I+0hfn25M0AZ/X/py2oAEAABRlZsCvizTqdzI0AACA3M8M8MXxizbqdzI0AACA3M8M8KV8ufbnsQ0NAAAg14o87OdAaAAAACggGgAAAAqIBgAAgAKiAQAAoIBoAAAAKCAaAAAACogGAACAAqIBAACggGgAAAAoIBoAAAAKiAYAAIACogEAAKCAaAAAACggGgAAAAqIBgAAgAKiAQAAoIBoAAAAKCAaAAAACogGAACAAirPm//aub39C/Ja5Ss/+DztNQYAAAAAAAAAAAAAAAAAAAAAAAAAAAAAAAAAAAAAAAAAAAAAAAAAAAAAAAAAAAAAAAAAAAAAAAAAAAAAAAAAAAAAAAAAAAAAAAAAAAAAAAAAAAAAAAAAAAAAAAAAAAAAAAAAAAAAAAAAAAAAAAAAAAAAAAAAAAAAAAAAAAAAAAAAAAAAAAAAAAAAAAAAAAAAAAAAAAAAAAAAAAAAAAAAAJJv/x+zWGcvyjNhNwAAAABJRU5ErkJggg==;" vertex="1" parent="1">
          <mxGeometry x="-518.98" y="454" width="35" height="35" as="geometry" />
        </mxCell>
        <mxCell id="CFGaGI9f9zlW45BvHWe5-51" value="&lt;b&gt;JWT &lt;/b&gt;Token" style="text;html=1;align=center;verticalAlign=middle;resizable=0;points=[];autosize=1;strokeColor=none;fillColor=none;rotation=32;" vertex="1" parent="1">
          <mxGeometry x="-584.98" y="424.02" width="79" height="26" as="geometry" />
        </mxCell>
        <mxCell id="CFGaGI9f9zlW45BvHWe5-52" value="3" style="ellipse;whiteSpace=wrap;html=1;aspect=fixed;fillColor=#000000;fontColor=#FFFFFF;" vertex="1" parent="1">
          <mxGeometry x="232" y="236" width="26.02" height="26.02" as="geometry" />
        </mxCell>
        <mxCell id="CFGaGI9f9zlW45BvHWe5-53" value="5" style="ellipse;whiteSpace=wrap;html=1;aspect=fixed;fillColor=#000000;fontColor=#FFFFFF;" vertex="1" parent="1">
          <mxGeometry x="-498" y="397" width="26.02" height="26.02" as="geometry" />
        </mxCell>
        <mxCell id="CFGaGI9f9zlW45BvHWe5-54" value="9" style="ellipse;whiteSpace=wrap;html=1;aspect=fixed;fillColor=#000000;fontColor=#FFFFFF;" vertex="1" parent="1">
          <mxGeometry x="-618" y="397" width="26.02" height="26.02" as="geometry" />
        </mxCell>
        <mxCell id="CFGaGI9f9zlW45BvHWe5-55" value="" style="shape=image;verticalLabelPosition=bottom;labelBackgroundColor=default;verticalAlign=top;aspect=fixed;imageAspect=0;image=https://cdn-icons-png.flaticon.com/512/1160/1160358.png;" vertex="1" parent="1">
          <mxGeometry x="-202.98" y="639" width="40" height="40" as="geometry" />
        </mxCell>
        <mxCell id="CFGaGI9f9zlW45BvHWe5-56" value="&lt;b&gt;Sign In &lt;/b&gt;foto" style="text;html=1;align=center;verticalAlign=middle;whiteSpace=wrap;rounded=0;" vertex="1" parent="1">
          <mxGeometry x="-272.48" y="675" width="179" height="39" as="geometry" />
        </mxCell>
        <mxCell id="CFGaGI9f9zlW45BvHWe5-58" value="" style="shape=image;verticalLabelPosition=bottom;labelBackgroundColor=default;verticalAlign=top;aspect=fixed;imageAspect=0;image=https://cdn-icons-png.flaticon.com/512/5339/5339181.png;" vertex="1" parent="1">
          <mxGeometry x="-713" y="257" width="86" height="86" as="geometry" />
        </mxCell>
      </root>
    </mxGraphModel>
  </diagram>
</mxfile>
